<?xml version="1.0" encoding="utf-8"?>
<!-- Generator: Adobe Illustrator 16.0.0, SVG Export Plug-In . SVG Version: 6.00 Build 0)  -->
<!DOCTYPE svg PUBLIC "-//W3C//DTD SVG 1.1//EN" "http://www.w3.org/Graphics/SVG/1.1/DTD/svg11.dtd">
<svg version="1.1" id="Google" xmlns="http://www.w3.org/2000/svg" xmlns:xlink="http://www.w3.org/1999/xlink" x="0px" y="0px"
	 width="507.1px" height="705.1px" viewBox="0 0 507.1 705.1" style="enable-background:new 0 0 507.1 705.1;" xml:space="preserve"
	>
<style type="text/css">
<![CDATA[
	.st0{display:none;fill-rule:evenodd;clip-rule:evenodd;fill:#049F5B;}
	.st1{display:none;fill-rule:evenodd;clip-rule:evenodd;fill:#DA4834;}
	.st2{fill-rule:evenodd;clip-rule:evenodd;fill:#1769E8;}
	.st3{display:none;fill-rule:evenodd;clip-rule:evenodd;fill:#1769E8;}
	.st4{display:none;fill-rule:evenodd;clip-rule:evenodd;fill:#FFBC0B;}
]]>
</style>
<path id="e" class="st1" d="M2007.1,443.5c-7,10-15.6,18.4-25.1,26c-31.9,25.5-68.7,32.8-108.4,30.1c-31.4-2.1-59.8-12.2-84.5-32
	c-29.5-23.6-47.4-54.5-56.1-90.9c-9.4-39.2-7.7-77.9,10.4-114.5c22.5-45.6,59.9-72.3,109.7-80.9c30.4-5.3,60.2-2.3,88.3,11.2
	c28.8,13.8,46.7,37.2,56.2,67.4c0.9,3-0.1,4.1-2.6,5.2c-14.8,6-29.5,12.1-44.3,18.1c-32.3,13.1-64.5,26.2-96.8,39.2
	c-18.6,7.6-37.3,15.1-55.9,22.6c-2.3,0.9-4.3,1.4-3.4,4.8c10.8,37.9,29.4,70.6,62.6,93.4c36,24.6,74.9,28.1,115.8,14.5
	C1984.6,453.8,1995.6,448.5,2007.1,443.5z M1785.7,292.4c-1.8,8.9,1.5,18.4,2.3,28.1c0.4,5,2.1,5.1,6.2,3.5
	c26.3-10.8,52.7-21.4,79-32.1c15.7-6.4,31.5-12.6,47-19.5c8.8-3.9,11.3-9.8,9.5-19c-4.6-22.7-19.1-37.4-39.6-46.1
	c-35.4-15-77.5,2.5-94.8,38.6C1788.4,260.3,1785.9,275.6,1785.7,292.4z"/>
<path id="l" class="st0" d="M1559,46.8c8.9-8.7,17.8-17.5,26.6-26.2c1-1,2.2-1.3,3.6-1.3c35.6,0,71.3,0,108.6,0
	c-4.7,4.6-8.6,8.1-12.2,11.8C1665.3,51.8,1668,44.5,1668,74c-0.1,123,0,246,0,369c0,2.2,0,4.3,0.1,6.5c0.7,8.9,6.8,15.5,15.7,16.7
	c10.6,1.4,21.1,2.7,31.7,4c1.5,0.2,3,0,4.7,1.4c-6,6-12,11.9-17.9,17.9c-1.2,1.2-2.7,1.2-4.2,1.2c-41.2,0-82.3,0-123.5,0
	c-0.6,0-1.2-0.2-2.5-0.4c6.6-6.7,12.5-13.2,19-19c7.4-6.6,10.2-14.3,10.1-24.2c-0.2-131-0.1-262,0-393c0-5-1.1-6.5-6.2-6.3
	c-11.8,0.4-23.6,0.1-35.4,0.1C1559.5,47.6,1559.3,47.2,1559,46.8z"/>
<path id="g" class="st2" d="M410.2,180.3c-8.5,8.4-17.1,16.8-25.5,25.4c-1.6,1.7-3.4,1.7-5.5,1.7c-9.3,0-18.7,0-28,0
	c-1.6,0-3.3-0.6-4.8,0.6c5.1,5.3,10.3,10.3,15.3,15.7c38.8,41.9,39.3,110.8-11.3,152.6c-6.7,5.5-13.5,10.9-20,16.6
	c-10.8,9.5-18,20.7-15.7,36c0.9,6.3,4,11.4,8.5,15.9c12.5,12.3,27.5,21.6,40.6,33.1c12.8,11.2,25.3,22.7,34.7,37.1
	c12.3,18.8,16.6,39.5,13.8,61.5c-5.6,44.7-31.8,74.5-70.3,94.9c-27.7,14.7-57.6,21-88.7,22.9c-26.9,1.6-53.6,0.1-79.7-7.1
	c-22.8-6.3-43.8-16.3-60.2-33.8c-31.5-33.8-30.8-82.6,1.3-116.3c18.5-19.5,41.7-31.2,66.8-39.5c27.3-9,55.6-13.4,84.3-15.3
	c1.3-0.1,2.6-0.2,5.6-0.5c-20.1-19.8-25.7-42.2-14.9-68.4c-9.9,0-19.1,0.2-28.2,0c-49.1-1.4-91-37.4-100.1-85.7
	c-11.2-59.1,20.8-115.2,78.2-137.2c19.2-7.3,39.1-11,59.6-11.1c46.7-0.2,93.3-0.1,140-0.1c1.3,0,2.5,0,3.8,0
	C409.9,179.5,410,179.9,410.2,180.3z M267.6,665.3c22.6-0.1,43.9-3.6,63.7-14.2c42.5-22.8,49.8-74.1,16.5-106.3
	c-15.1-14.7-32.1-27-49.1-39.3c-3.2-2.3-6.7-3.2-10.6-3.3c-15.4-0.2-30.6,0.8-45.8,3c-19.9,2.9-39.1,7.9-56.6,18.2
	c-36.1,21.3-42.6,59-28.3,89.6c7.7,16.5,21.3,27.8,37.4,36C217.8,660.9,242.6,664.9,267.6,665.3z M184.6,273.2
	c0.1,2.5,0.2,5,0.3,7.5c2.2,33.3,12.5,63.5,34.7,89.1c19.4,22.3,47,29.4,74.2,19.5c25.8-9.4,40.9-32,41.4-61.7
	c0.5-28.2-6.8-54.3-20.6-78.7c-9.6-16.9-21.4-31.6-39-41c-32.8-17.5-71-4.2-84.9,29.7C186,249,184.6,261,184.6,273.2z"/>
<path id="o" class="st4" d="M422.5,336.5c-2.9,64.7-30.6,114.5-89,145.1c-29.1,15.3-60.7,20-93.5,17.9c-24.4-1.6-47.7-7.3-69.1-19.3
	c-42.1-23.5-67.6-59.6-77.6-106.3c-18-84.8,35.7-169,125.5-189.3c36.4-8.2,72.6-8.1,107.3,7c52.2,22.7,82.9,62.9,93.8,118.5
	C421.9,318.7,422.4,327.5,422.5,336.5z M357.1,370.7c-0.5-17.2-2.1-34.5-5.9-51.7c-6.5-29.7-17-57.7-36.1-82
	c-43-54.5-112.5-39.1-142.3,1.9c-13.1,18-16.9,38.9-17.6,60.4c-0.9,30.8,4.6,60.6,14.5,89.7c8.6,25.4,21.1,48.4,40.9,67.1
	c43.9,41.6,113.9,24.3,135.7-26.6C354.4,410.8,356.8,391.1,357.1,370.7z"/>
<path id="o_1_" class="st1" d="M260.9,179.2c81,0.2,144.1,50.7,159.5,126c15.7,76.5-26.9,159-106.8,185.2
	c-42.3,13.9-84.7,13.9-126-3C139.1,467.7,109,431,96.1,380.9C74.4,296.4,124,212.1,208.8,187.2C227.1,181.9,245.9,179.3,260.9,179.2
	z M357.9,367c0.1-12.2-1.8-28.5-5.1-44.7c-6.2-30.5-16.6-59.2-35.9-84.1c-34.5-44.4-86.1-44.5-123-18.8
	c-25,17.4-35.3,42.8-37.1,72.2c-1.9,31.3,2.7,61.8,12.1,91.6c8.9,28.2,21.9,53.8,44.2,74.1c41.1,37.4,107.2,25.7,132.1-23.9
	C355.1,413.9,357.9,392.9,357.9,367z"/>
<path id="G" class="st3" d="M321.2,343.1c9.3-9.5,18-18.3,26.6-27.1c1.3-1.3,2.7-1.6,4.5-1.6c49.5,0,99,0.1,148.5,0.1
	c0.1,0,0.3,0.1,0.5,0.2c0.2,1.8-1.5,2.4-2.4,3.4c-6,6.1-11.8,12.2-18.1,18c-5.5,5.1-7.9,11-7.8,18.6c0.2,38.7,0,77.3,0.2,116
	c0,4.1-0.9,5.9-5.3,7.1c-36.2,9.8-72.7,18.1-109.8,23.1c-36.7,5-73.6,7.9-110.6,5.1c-66.4-5-125.1-28-171.6-77.2
	c-32.2-34-51.1-74.7-59.4-120.5c-7.1-39-7.1-78,4.4-116.2c21.2-70.5,65-122,131.5-153.8c36-17.2,74.2-25.1,113.8-27.1
	c42.6-2.1,84.5,2.3,125.3,15.1c27.3,8.6,52.9,20.7,76.8,36.6c1.6,1.1,4.3,1.6,1.4,4.5c-20.8,20.7-41.4,41.5-62.1,62.3
	c-1.8-1.2-1-2.6-1-3.8c-0.1-8-0.7-16.1,0.1-24c1-8.6-2.9-13.5-9-18.7c-41.5-35.7-90.1-48.8-143.7-45.8
	c-44.9,2.5-83.6,19.4-115.2,51.7c-26.1,26.8-42,59.1-49.1,95.5c-13.8,70.8-1.1,137,39.5,196.7c37,54.4,88.5,86.5,154.4,94.1
	c40,4.6,79.4,0.4,118.2-10.1c3.7-1,4.8-2.6,4.8-6.5c-0.2-36.8-0.2-73.7,0-110.5c0-4.2-1-5.2-5.2-5.2c-24.8,0.2-49.7,0.1-74.5,0.1
	C325.1,343.1,323.5,343.1,321.2,343.1z"/>
</svg>
