<?xml version="1.0" encoding="utf-8"?>
<!-- Generator: Adobe Illustrator 16.0.0, SVG Export Plug-In . SVG Version: 6.00 Build 0)  -->
<!DOCTYPE svg PUBLIC "-//W3C//DTD SVG 1.1//EN" "http://www.w3.org/Graphics/SVG/1.1/DTD/svg11.dtd">
<svg version="1.1" id="Layer_2" xmlns="http://www.w3.org/2000/svg" xmlns:xlink="http://www.w3.org/1999/xlink" x="0px" y="0px"
	 width="1102.786px" height="220px" viewBox="0 0 1102.786 220" enable-background="new 0 0 1102.786 220" xml:space="preserve">
<g>
	<rect x="458.5" y="108.522" fill="#B25538" width="85.414" height="46.978"/>
	<polygon fill="#9F2214" points="452.5,110.522 548.915,110.522 497.695,84.5 	"/>
</g>
<g>
	<rect x="517.334" y="138.855" fill="#B25538" width="85.414" height="46.978"/>
	<polygon fill="#9F2214" points="513.75,140.095 605.75,140.095 556.876,114.833 	"/>
</g>
<g>
	<rect x="478.501" y="138.035" fill="#BD8648" width="85.414" height="48.632"/>
	<polygon fill="#5A3B00" points="466.5,144.937 577.915,144.937 518.726,113.167 	"/>
</g>
<g>
	<rect x="94" y="119.522" fill="#B25538" width="85.414" height="46.978"/>
	<polygon fill="#9F2214" points="94,119.522 179.415,119.522 134.039,95.5 	"/>
</g>
<g>
	<rect x="168.501" y="125.035" fill="#BD8648" width="85.414" height="48.632"/>
	<polygon fill="#5A3B00" points="156.5,131.937 267.915,131.937 208.726,100.167 	"/>
</g>
<g>
	<rect x="14.834" y="109.189" fill="#B25538" width="85.414" height="46.977"/>
	<polygon fill="#9F2214" points="14.834,109.189 100.249,109.189 54.873,85.167 	"/>
</g>
<g>
	<rect x="0" y="134.5" fill="#B25538" width="70" height="44.5"/>
	<polygon fill="#5A3B00" points="0,111 22.5,92.5 89.5,134.667 0,134.834 	"/>
</g>
<g>
	<rect x="605.5" y="153.606" fill="#A7805A" width="85.414" height="32.228"/>
	<polygon fill="#5A3B00" points="600.167,155.606 696.915,155.606 645.518,107.417 	"/>
</g>
<g>
	<rect x="696.335" y="122.104" fill="#B25538" width="85.414" height="65.063"/>
	<polygon fill="#9F2214" points="691.334,125.604 787.749,125.604 736.529,88.833 	"/>
</g>
<g>
	<rect x="786.667" y="139.189" fill="#B25538" width="85.414" height="46.978"/>
	<polygon fill="#9F2214" points="782.667,140.522 876.415,140.522 826.612,115.166 	"/>
</g>
<g>
	<rect x="991.834" y="144.522" fill="#B25538" width="85.414" height="46.978"/>
	<polygon fill="#824737" points="984.667,145.522 1082.748,145.522 1030.643,121.499 	"/>
</g>
<g>
	<rect x="347.998" y="89.727" fill="#AA7455" width="85.414" height="72.781"/>
	<polygon fill="#9F2214" points="346.027,90.833 434.746,90.833 387.614,52.177 	"/>
</g>
<g>
	<rect x="81.5" y="157.606" fill="#A7805A" width="85.414" height="32.228"/>
	<polygon fill="#5A3B00" points="76.167,158.106 172.914,158.106 121.517,111.417 	"/>
</g>
<g>
	<rect x="199.334" y="122.104" fill="#B25538" width="85.414" height="65.063"/>
	<polygon fill="#9F2214" points="194.334,125.604 290.748,125.604 239.528,88.834 	"/>
</g>
<g>
	<rect x="293.667" y="141.189" fill="#B25538" width="85.414" height="46.978"/>
	<polygon fill="#9F2214" points="289.667,141.189 383.415,141.189 333.611,117.166 	"/>
</g>
</svg>
