<?xml version="1.0" encoding="utf-8"?>
<!-- Generator: Adobe Illustrator 16.0.0, SVG Export Plug-In . SVG Version: 6.00 Build 0)  -->
<!DOCTYPE svg PUBLIC "-//W3C//DTD SVG 1.1//EN" "http://www.w3.org/Graphics/SVG/1.1/DTD/svg11.dtd">
<svg version="1.1" id="Layer_3" xmlns="http://www.w3.org/2000/svg" xmlns:xlink="http://www.w3.org/1999/xlink" x="0px" y="0px"
	 width="675.307px" height="220px" viewBox="0 0 675.307 220" enable-background="new 0 0 675.307 220" xml:space="preserve">
<g>
	<rect x="92.508" y="57.139" fill="#B25538" width="38.083" height="106.523"/>
	<polygon fill="#809677" points="92.508,57.139 130.59,57.139 110.359,2.667 	"/>
</g>
<g>
	<polygon fill="#A7805A" points="621,156.5 577.25,156.75 579.938,31.125 617.834,31.167 	"/>
	<polygon fill="#80612E" points="586.917,139.172 588.124,85 593.542,85 593.382,139.172 	"/>
	<polygon fill="#80612E" points="612.709,139.666 611.472,85 605.751,85 605.919,139.666 	"/>
	<path fill="#80612E" d="M612.917,80.312h-11.001c0,0-0.001-37.396,0-40.062S604.5,37.5,604.5,37.5h3.667
		c0,0,2.496-0.008,2.707,2.413S612.917,80.312,612.917,80.312z"/>
	<path fill="#80612E" d="M596.667,80.168h-10.834c0,0,1.793-37.668,1.793-39.918s3.04-2.749,3.04-2.749h2.833
		c0,0,3.167,0.499,3.167,2.833S596.667,80.168,596.667,80.168z"/>
	<polygon fill="#80612E" points="619.292,83.958 578.902,84.068 579.046,81.474 619.147,81.474 	"/>
	<rect x="578.375" y="27.313" fill="#80612E" width="40.75" height="5.5"/>
	<rect x="580.75" y="22.75" fill="#A7805A" width="35.75" height="4.75"/>
</g>
</svg>
