<?xml version="1.0" encoding="utf-8"?>
<!-- Generator: Adobe Illustrator 16.0.0, SVG Export Plug-In . SVG Version: 6.00 Build 0)  -->
<!DOCTYPE svg PUBLIC "-//W3C//DTD SVG 1.1//EN" "http://www.w3.org/Graphics/SVG/1.1/DTD/svg11.dtd">
<svg version="1.1" id="Layer_1" xmlns="http://www.w3.org/2000/svg" xmlns:xlink="http://www.w3.org/1999/xlink" x="0px" y="0px"
	 width="1572.555px" height="220px" viewBox="0 0 1572.555 220" enable-background="new 0 0 1572.555 220" xml:space="preserve">
<g>
	<rect x="754.405" y="93.975" fill="#A7805A" width="85.413" height="62.858"/>
	<polygon fill="#9F2214" points="748.405,96.65 844.819,96.65 793.599,61.833 	"/>
</g>
<g>
	<rect x="813.239" y="107.768" fill="#B25538" width="85.413" height="79.398"/>
	<polygon fill="#9F2214" points="809.655,109.863 901.655,109.863 852.78,67.166 	"/>
</g>
<g>
	<rect x="901.405" y="154.938" fill="#A7805A" width="85.413" height="38.229"/>
	<polygon fill="#9F2214" points="896.071,156.938 992.819,156.938 941.423,108.75 	"/>
</g>
<g>
	<rect x="992.24" y="123.438" fill="#BD8648" width="85.413" height="65.063"/>
	<polygon fill="#9F2214" points="987.239,126.938 1083.653,126.938 1032.433,90.166 	"/>
</g>
<g>
	<rect x="1048.073" y="137.521" fill="#B25538" width="85.414" height="46.979"/>
	<polygon fill="#9F2214" points="1044.073,138.854 1137.821,138.854 1088.018,113.499 	"/>
</g>
<g>
	<rect x="693.24" y="130.438" fill="#B25538" width="85.412" height="65.063"/>
	<polygon fill="#9F2214" points="688.239,133.938 784.653,133.938 733.433,97.166 	"/>
</g>
<g>
	<rect x="775.571" y="156.521" fill="#A7805A" width="85.414" height="46.979"/>
	<polygon fill="#9F2214" points="771.571,157.854 865.319,157.854 815.516,132.499 	"/>
</g>
<g>
	<rect x="1140.881" y="87.976" fill="#7E6B71" width="85.412" height="81.524"/>
	<polygon fill="#9F2214" points="1134.881,90.651 1231.295,90.651 1180.073,55.834 	"/>
</g>
<g>
	<rect x="1199.715" y="101.77" fill="#B25538" width="85.412" height="79.397"/>
	<polygon fill="#9F2214" points="1196.131,103.863 1288.131,103.863 1239.256,61.167 	"/>
</g>
<g>
	<rect x="1291.381" y="161.939" fill="#A7805A" width="85.412" height="32.229"/>
	<polygon fill="#7E6B71" points="1286.047,163.939 1382.795,163.939 1331.398,115.751 	"/>
</g>
<g>
	<rect x="1374.716" y="130.438" fill="#B25538" width="85.413" height="65.063"/>
	<polygon fill="#9F2214" points="1369.715,133.938 1466.129,133.938 1414.906,97.167 	"/>
</g>
<g>
	<rect x="1465.047" y="147.523" fill="#B25538" width="85.414" height="46.978"/>
	<polygon fill="#9F2214" points="1461.047,148.855 1554.795,148.855 1504.99,123.5 	"/>
</g>
<g>
	<rect x="962.866" y="172.916" fill="#A7805A" width="85.413" height="36.751"/>
	<polygon fill="#5A3B00" points="957.532,175.197 1054.281,175.197 1002.887,120.25 	"/>
</g>
<g>
	<rect x="1054.487" y="134.938" fill="#B25538" width="98.771" height="65.063"/>
	<polygon fill="#9F2214" points="1048.7,138.438 1160.193,138.438 1100.964,101.666 	"/>
</g>
<g>
	<rect x="1144.032" y="153.602" fill="#A7805A" width="85.414" height="50.064"/>
	<polygon fill="#9F2214" points="1140.032,155.02 1233.781,155.02 1183.981,127.999 	"/>
</g>
<g>
	<rect x="855.406" y="154.025" fill="#BD8648" width="85.413" height="54.808"/>
	<polygon fill="#5A3B00" points="843.405,161.805 954.819,161.805 895.631,125.999 	"/>
</g>
<g>
	<rect x="1233.382" y="155.368" fill="#BD8648" width="85.413" height="48.632"/>
	<polygon fill="#5A3B00" points="1221.381,162.271 1332.795,162.271 1273.606,130.5 	"/>
</g>
</svg>
