<?xml version="1.0" encoding="utf-8"?>
<!-- Generator: Adobe Illustrator 16.0.0, SVG Export Plug-In . SVG Version: 6.00 Build 0)  -->
<!DOCTYPE svg PUBLIC "-//W3C//DTD SVG 1.1//EN" "http://www.w3.org/Graphics/SVG/1.1/DTD/svg11.dtd">
<svg version="1.1" id="Layer_1" xmlns="http://www.w3.org/2000/svg" xmlns:xlink="http://www.w3.org/1999/xlink" x="0px" y="0px"
	 width="1254px" height="220px" viewBox="0 0 1254 220" enable-background="new 0 0 1254 220" xml:space="preserve">
<polygon fill="#009444" points="678.793,217.698 676.793,185.298 681.293,218.198 "/>
<polygon fill="#009444" points="680.693,211.298 678.693,178.998 683.193,211.798 "/>
<polygon fill="#009444" points="681.094,215.198 683.094,182.798 678.594,215.698 "/>
<polygon fill="#009444" points="683.293,212.098 685.293,179.698 680.793,212.598 "/>
<polygon fill="#009444" points="680.094,223.198 678.094,190.798 682.594,223.698 "/>
<polygon fill="#009444" points="679.594,216.398 682.094,174.498 681.992,217.198 "/>
<polygon fill="#009444" points="528,229.198 524.9,179.998 531.698,229.898 "/>
<polygon fill="#009444" points="530.801,219.498 527.801,170.398 534.6,220.298 "/>
<polygon fill="#009444" points="531.4,225.398 534.4,176.298 527.6,226.098 "/>
<polygon fill="#009444" points="534.801,220.598 537.801,171.498 531,221.398 "/>
<polygon fill="#009444" points="529.801,237.498 526.801,188.398 533.6,238.298 "/>
<polygon fill="#009444" points="532.9,227.298 529.1,163.498 529.301,228.398 "/>
<polygon fill="#009444" points="536,227.898 534,195.498 538.5,228.398 "/>
<polygon fill="#009444" points="537.9,221.498 535.9,189.098 540.4,221.998 "/>
<polygon fill="#009444" points="538.301,225.398 540.301,192.998 535.801,225.898 "/>
<polygon fill="#009444" points="678.492,216.798 680.492,184.398 675.992,217.298 "/>
<polygon fill="#009444" points="537.5,232.198 535.5,199.798 540,232.698 "/>
<polygon fill="#006838" points="536.801,226.598 539.301,184.598 539.198,227.398 "/>
<polygon fill="#009444" points="688.992,221.598 686.992,189.298 691.492,222.098 "/>
<polygon fill="#009444" points="690.893,215.298 688.893,182.898 693.393,215.798 "/>
<polygon fill="#009444" points="691.293,219.098 693.293,186.798 688.793,219.598 "/>
<polygon fill="#009444" points="693.492,215.998 695.492,183.598 690.992,216.498 "/>
<polygon fill="#009444" points="690.293,227.098 688.293,194.798 692.793,227.598 "/>
<polygon fill="#009444" points="689.793,220.398 692.293,178.398 692.193,221.098 "/>
<polygon fill="#009444" points="684.393,224.198 681.793,182.198 686.893,224.698 "/>
<polygon fill="#009444" points="685.193,223.898 687.693,181.998 687.594,224.698 "/>
<polygon fill="#009444" points="683.693,225.398 686.193,183.498 686.094,226.198 "/>
<polygon fill="#009444" points="686.293,224.098 688.793,182.098 688.693,224.898 "/>
<polygon fill="#009444" points="521.801,231.398 519.801,198.998 524.301,231.898 "/>
<polygon fill="#009444" points="523.6,224.998 521.6,192.598 526.1,225.498 "/>
<polygon fill="#009444" points="524,228.898 526,196.498 521.5,229.398 "/>
<polygon fill="#009444" points="526.301,225.798 528.301,193.398 523.801,226.298 "/>
<polygon fill="#009444" points="523,236.898 521,204.498 525.5,237.398 "/>
<polygon fill="#009444" points="522.5,230.098 525,188.098 525,230.898 "/>
<polygon fill="#009444" points="517.198,217.998 514.5,175.998 519.698,218.398 "/>
<polygon fill="#009444" points="517.9,217.698 520.4,175.698 520.4,218.498 "/>
<polygon fill="#009444" points="516.4,219.198 518.9,177.198 518.9,219.998 "/>
<polygon fill="#006838" points="519,217.898 521.5,175.898 521.5,218.598 "/>
<polygon fill="#009444" points="694.393,230.298 692.393,197.898 696.893,230.798 "/>
<polygon fill="#009444" points="696.293,223.898 694.293,191.498 698.793,224.398 "/>
<polygon fill="#009444" points="696.594,227.798 698.594,195.398 694.094,228.298 "/>
<polygon fill="#009444" points="695.893,234.598 693.893,202.198 698.393,235.098 "/>
<polygon fill="#009444" points="695.193,228.998 697.693,186.998 697.594,229.698 "/>
<polygon fill="#009444" points="721.793,225.998 719.793,193.698 724.293,226.498 "/>
<polygon fill="#009444" points="723.693,219.698 721.693,187.298 726.193,220.198 "/>
<polygon fill="#009444" points="724.094,223.498 726.094,191.198 721.594,223.998 "/>
<polygon fill="#39B54A" points="726.293,220.398 728.293,187.998 723.793,220.898 "/>
<polygon fill="#009444" points="723.094,231.498 721.094,199.198 725.594,231.998 "/>
<polygon fill="#009444" points="722.594,224.798 725.094,182.798 724.992,225.498 "/>
<polygon fill="#009444" points="708.992,231.998 705.893,182.898 712.693,232.798 "/>
<polygon fill="#009444" points="711.793,222.298 708.793,173.198 715.594,223.098 "/>
<polygon fill="#009444" points="712.393,228.198 715.393,179.098 708.594,228.998 "/>
<polygon fill="#009444" points="715.793,223.498 718.793,174.298 711.992,224.198 "/>
<polygon fill="#009444" points="710.793,240.398 707.793,191.198 714.594,241.098 "/>
<polygon fill="#009444" points="713.893,230.098 710.094,166.398 710.293,231.298 "/>
<polygon fill="#009444" points="716.992,230.698 714.992,198.298 719.492,231.198 "/>
<polygon fill="#009444" points="718.893,224.298 716.893,191.998 721.393,224.798 "/>
<polygon fill="#009444" points="719.293,228.198 721.293,195.798 716.793,228.698 "/>
<polygon fill="#009444" points="721.492,225.098 723.492,192.698 718.992,225.598 "/>
<polygon fill="#009444" points="718.492,234.998 716.492,202.598 720.992,235.498 "/>
<polygon fill="#009444" points="717.793,229.398 720.293,187.498 720.193,230.198 "/>
<polygon fill="#39B54A" points="731.992,229.998 729.992,197.598 734.492,230.498 "/>
<polygon fill="#39B54A" points="733.893,223.598 731.893,191.198 736.393,224.098 "/>
<polygon fill="#39B54A" points="734.293,227.498 736.293,195.098 731.793,227.998 "/>
<polygon fill="#39B54A" points="736.492,224.298 738.492,191.998 733.992,224.798 "/>
<polygon fill="#39B54A" points="733.293,235.498 731.293,203.098 735.793,235.998 "/>
<polygon fill="#39B54A" points="732.793,228.698 735.293,186.698 735.193,229.498 "/>
<polygon fill="#39B54A" points="727.393,232.498 724.793,190.598 729.893,232.998 "/>
<polygon fill="#39B54A" points="728.193,232.298 730.693,190.298 730.594,232.998 "/>
<polygon fill="#39B54A" points="726.693,233.798 729.193,191.798 729.094,234.498 "/>
<polygon fill="#39B54A" points="729.293,232.398 731.793,190.498 731.693,233.198 "/>
<polygon fill="#009444" points="702.793,234.198 700.793,201.798 705.293,234.698 "/>
<polygon fill="#009444" points="704.594,227.798 702.594,195.498 707.094,228.298 "/>
<polygon fill="#009444" points="704.992,231.698 706.992,199.298 702.492,232.198 "/>
<polygon fill="#006838" points="707.293,228.598 709.293,196.198 704.793,229.098 "/>
<polygon fill="#009444" points="703.992,239.698 701.992,207.298 706.492,240.198 "/>
<polygon fill="#009444" points="703.492,232.898 705.992,190.998 705.992,233.698 "/>
<polygon fill="#009444" points="698.193,236.798 695.492,194.798 700.693,237.298 "/>
<polygon fill="#009444" points="698.893,236.498 701.393,194.498 701.393,237.298 "/>
<polygon fill="#009444" points="697.393,237.998 699.893,195.998 699.893,238.798 "/>
<polygon fill="#009444" points="699.992,236.698 702.492,194.698 702.492,237.498 "/>
<polygon fill="#39B54A" points="737.393,238.598 735.393,206.198 739.893,239.098 "/>
<polygon fill="#39B54A" points="739.293,232.198 737.293,199.798 741.793,232.698 "/>
<polygon fill="#39B54A" points="739.594,236.098 741.594,203.698 737.094,236.598 "/>
<polygon fill="#39B54A" points="738.893,242.898 736.893,210.498 741.393,243.398 "/>
<polygon fill="#39B54A" points="738.193,237.298 740.693,195.298 740.594,238.098 "/>
<polygon fill="#009444" points="498.801,223.798 496.801,191.398 501.301,224.298 "/>
<polygon fill="#009444" points="500.698,217.398 498.698,184.998 503.198,217.898 "/>
<polygon fill="#009444" points="501.1,221.298 503.1,188.898 498.6,221.798 "/>
<polygon fill="#009444" points="503.301,218.198 505.301,185.798 500.801,218.698 "/>
<polygon fill="#009444" points="500.1,229.298 498.1,196.898 502.6,229.798 "/>
<polygon fill="#009444" points="499.6,222.498 502.1,180.498 502,223.298 "/>
<polygon fill="#009444" points="486,229.798 482.9,180.598 489.698,230.498 "/>
<polygon fill="#009444" points="488.801,220.098 485.801,170.998 492.6,220.898 "/>
<polygon fill="#009444" points="489.4,225.998 492.4,176.798 485.6,226.698 "/>
<polygon fill="#009444" points="492.801,221.198 495.801,172.098 489,221.998 "/>
<polygon fill="#009444" points="487.801,238.098 484.801,188.998 491.6,238.898 "/>
<polygon fill="#009444" points="490.9,227.798 487.1,164.098 487.301,228.998 "/>
<polygon fill="#009444" points="494,228.498 492,196.098 496.5,228.998 "/>
<polygon fill="#009444" points="495.9,222.098 493.9,189.698 498.4,222.598 "/>
<polygon fill="#009444" points="496.301,225.998 498.301,193.598 493.801,226.498 "/>
<polygon fill="#009444" points="498.5,222.798 500.5,190.498 496,223.298 "/>
<polygon fill="#009444" points="495.5,232.798 493.5,200.398 498,233.298 "/>
<polygon fill="#006838" points="494.801,227.198 497.301,185.198 497.198,227.998 "/>
<polygon fill="#009444" points="509,227.698 507,195.298 511.5,228.198 "/>
<polygon fill="#009444" points="510.9,221.298 508.9,188.998 513.4,221.798 "/>
<polygon fill="#009444" points="511.301,225.198 513.301,192.798 508.801,225.698 "/>
<polygon fill="#009444" points="513.5,222.098 515.5,189.698 511,222.598 "/>
<polygon fill="#009444" points="510.301,233.198 508.301,200.798 512.801,233.698 "/>
<polygon fill="#009444" points="509.801,226.398 512.301,184.498 512.198,227.198 "/>
<polygon fill="#009444" points="504.4,230.298 501.801,188.298 506.9,230.798 "/>
<polygon fill="#009444" points="505.198,229.998 507.698,187.998 507.6,230.798 "/>
<polygon fill="#009444" points="503.698,231.498 506.198,189.498 506.1,232.298 "/>
<polygon fill="#009444" points="506.301,230.198 508.801,188.198 508.698,230.998 "/>
<polygon fill="#009444" points="479.801,231.998 477.801,199.598 482.301,232.498 "/>
<polygon fill="#009444" points="481.6,225.598 479.6,193.198 484.1,226.098 "/>
<polygon fill="#009444" points="482,229.498 484,197.098 479.5,229.998 "/>
<polygon fill="#009444" points="484.301,226.298 486.301,193.998 481.801,226.798 "/>
<polygon fill="#009444" points="481,237.498 479,205.098 483.5,237.998 "/>
<polygon fill="#009444" points="480.5,230.698 483,188.698 483,231.498 "/>
<polygon fill="#009444" points="477,234.398 479.5,192.498 479.5,235.198 "/>
<polygon fill="#009444" points="514.4,236.298 512.4,203.998 516.9,236.798 "/>
<polygon fill="#009444" points="516.301,229.998 514.301,197.598 518.801,230.498 "/>
<polygon fill="#009444" points="516.6,233.798 518.6,201.498 514.1,234.298 "/>
<polygon fill="#009444" points="515.9,240.598 513.9,208.298 518.4,241.098 "/>
<polygon fill="#009444" points="515.198,235.098 517.698,193.098 517.6,235.798 "/>
<polygon fill="#006838" points="83.801,225.498 81.801,193.198 86.301,225.998 "/>
<polygon fill="#006838" points="85.698,219.198 83.698,186.798 88.198,219.698 "/>
<polygon fill="#006838" points="86.1,222.998 88.1,190.698 83.6,223.498 "/>
<polygon fill="#006838" points="88.301,219.898 90.301,187.498 85.801,220.398 "/>
<polygon fill="#006838" points="85.1,230.998 83.1,198.698 87.6,231.498 "/>
<polygon fill="#006838" points="84.6,224.298 87.1,182.298 87,224.998 "/>
<polygon fill="#006838" points="71,231.498 67.9,182.398 74.698,232.298 "/>
<polygon fill="#006838" points="73.801,221.798 70.801,172.698 77.6,222.598 "/>
<polygon fill="#006838" points="74.4,227.698 77.4,178.598 70.6,228.498 "/>
<polygon fill="#006838" points="77.801,222.998 80.801,173.798 74,223.698 "/>
<polygon fill="#006838" points="72.801,239.898 69.801,190.698 76.6,240.598 "/>
<polygon fill="#006838" points="75.9,229.598 72.1,165.898 72.301,230.798 "/>
<polygon fill="#006838" points="79,230.198 77,197.798 81.5,230.698 "/>
<polygon fill="#006838" points="80.9,223.798 78.9,191.498 83.4,224.298 "/>
<polygon fill="#006838" points="81.301,227.698 83.301,195.298 78.801,228.198 "/>
<polygon fill="#006838" points="83.5,224.598 85.5,192.198 81,225.098 "/>
<polygon fill="#006838" points="80.5,234.498 78.5,202.098 83,234.998 "/>
<polygon fill="#006838" points="79.801,228.898 82.301,186.998 82.198,229.698 "/>
<polygon fill="#006838" points="94,229.498 92,197.098 96.5,229.998 "/>
<polygon fill="#006838" points="95.9,223.098 93.9,190.698 98.4,223.598 "/>
<polygon fill="#006838" points="96.301,226.998 98.301,194.598 93.801,227.498 "/>
<polygon fill="#006838" points="98.5,223.798 100.5,191.498 96,224.298 "/>
<polygon fill="#006838" points="95.301,234.998 93.301,202.598 97.801,235.498 "/>
<polygon fill="#006838" points="94.801,228.198 97.301,186.198 97.198,228.998 "/>
<polygon fill="#006838" points="89.4,231.998 86.801,190.098 91.9,232.498 "/>
<polygon fill="#006838" points="90.198,231.798 92.698,189.798 92.6,232.498 "/>
<polygon fill="#006838" points="88.698,233.298 91.198,191.298 91.1,233.998 "/>
<polygon fill="#006838" points="91.301,231.898 93.801,189.998 93.698,232.698 "/>
<polygon fill="#006838" points="99.4,238.098 97.4,205.698 101.9,238.598 "/>
<polygon fill="#006838" points="101.301,231.698 99.301,199.298 103.801,232.198 "/>
<polygon fill="#006838" points="101.6,235.598 103.6,203.198 99.1,236.098 "/>
<polygon fill="#006838" points="100.9,242.398 98.9,209.998 103.4,242.898 "/>
<polygon fill="#006838" points="100.198,236.798 102.698,194.798 102.6,237.598 "/>
<polygon fill="#006838" points="862.904,237.698 860.904,205.298 865.404,238.198 "/>
<polygon fill="#006838" points="942.8,217.799 940.8,185.499 945.3,218.299 "/>
<polygon fill="#006838" points="943.198,221.699 945.198,189.299 940.698,222.199 "/>
<polygon fill="#006838" points="945.4,218.6 947.4,186.199 942.9,219.1 "/>
<polygon fill="#006838" points="942.198,229.699 940.198,197.299 944.698,230.199 "/>
<polygon fill="#006838" points="863.702,236.398 866.202,194.498 866.104,237.198 "/>
<polygon fill="#006838" points="850.104,243.698 847.004,194.498 853.803,244.398 "/>
<polygon fill="#006838" points="852.904,233.998 849.904,184.898 856.702,234.798 "/>
<polygon fill="#006838" points="853.504,239.898 856.504,190.798 849.702,240.598 "/>
<polygon fill="#006838" points="856.904,235.098 859.904,185.998 853.104,235.898 "/>
<polygon fill="#006838" points="851.904,251.998 848.904,202.898 855.702,252.798 "/>
<polygon fill="#006838" points="855.004,241.798 851.202,177.998 851.404,242.898 "/>
<polygon fill="#006838" points="858.104,242.398 856.104,209.998 860.604,242.898 "/>
<polygon fill="#006838" points="860.004,235.998 858.004,203.598 862.504,236.498 "/>
<polygon fill="#006838" points="860.404,239.898 862.404,207.498 857.904,240.398 "/>
<polygon fill="#006838" points="862.604,236.798 864.604,204.398 860.104,237.298 "/>
<polygon fill="#006838" points="859.604,246.698 857.604,214.298 862.104,247.198 "/>
<polygon fill="#006838" points="858.904,241.098 861.404,199.098 861.303,241.898 "/>
<polygon fill="#006838" points="951.1,228.1 949.1,195.799 953.6,228.6 "/>
<polygon fill="#006838" points="953,221.799 951,189.398 955.5,222.299 "/>
<polygon fill="#006838" points="953.4,225.6 955.4,193.299 950.9,226.1 "/>
<polygon fill="#006838" points="955.6,222.499 957.6,190.1 953.1,222.999 "/>
<polygon fill="#006838" points="952.4,233.6 950.4,201.299 954.9,234.1 "/>
<polygon fill="#006838" points="951.9,226.898 954.4,184.898 954.3,227.6 "/>
<polygon fill="#006838" points="946.5,230.699 943.9,188.699 949,231.199 "/>
<polygon fill="#006838" points="947.3,230.398 949.8,188.499 949.698,231.199 "/>
<polygon fill="#006838" points="945.8,231.898 948.3,189.999 948.198,232.699 "/>
<polygon fill="#006838" points="948.4,230.6 950.9,188.6 950.8,231.398 "/>
<polygon fill="#006838" points="843.904,245.898 841.904,213.498 846.404,246.398 "/>
<polygon fill="#006838" points="845.702,239.498 843.702,207.098 848.202,239.998 "/>
<polygon fill="#006838" points="846.104,243.398 848.104,210.998 843.604,243.898 "/>
<polygon fill="#006838" points="848.404,240.298 850.404,207.898 845.904,240.798 "/>
<polygon fill="#006838" points="845.104,251.398 843.104,218.998 847.604,251.898 "/>
<polygon fill="#006838" points="844.604,244.598 847.104,202.598 847.104,245.398 "/>
<polygon fill="#006838" points="839.303,248.498 836.604,206.498 841.803,248.898 "/>
<polygon fill="#006838" points="840.004,248.198 842.504,206.198 842.504,248.998 "/>
<polygon fill="#006838" points="838.504,249.698 841.004,207.698 841.004,250.498 "/>
<polygon fill="#006838" points="841.104,248.398 843.604,206.398 843.604,249.098 "/>
<polygon fill="#006838" points="956.5,236.799 954.5,204.398 959,237.299 "/>
<polygon fill="#006838" points="958.4,230.398 956.4,197.999 960.9,230.898 "/>
<polygon fill="#006838" points="958.698,234.299 960.698,201.898 956.198,234.799 "/>
<polygon fill="#006838" points="958,241.1 956,208.699 960.5,241.6 "/>
<polygon fill="#006838" points="957.3,235.499 959.8,193.499 959.698,236.199 "/>
<polygon fill="#006838" points="983.9,232.499 981.9,200.199 986.4,232.999 "/>
<polygon fill="#006838" points="985.8,226.199 983.8,193.799 988.3,226.699 "/>
<polygon fill="#006838" points="986.198,229.999 988.198,197.699 983.698,230.499 "/>
<polygon fill="#006838" points="1147.392,231.398 1149.392,198.999 1144.892,231.898 "/>
<polygon fill="#006838" points="985.198,237.999 983.198,205.699 987.698,238.499 "/>
<polygon fill="#006838" points="984.698,231.299 987.198,189.299 987.1,231.999 "/>
<polygon fill="#006838" points="971.1,238.499 968,189.398 974.8,239.299 "/>
<polygon fill="#006838" points="973.9,228.799 970.9,179.699 977.698,229.6 "/>
<polygon fill="#006838" points="974.5,234.699 977.5,185.6 970.698,235.499 "/>
<polygon fill="#006838" points="977.9,229.999 980.9,180.799 974.1,230.699 "/>
<polygon fill="#006838" points="972.9,246.898 969.9,197.699 976.698,247.6 "/>
<polygon fill="#006838" points="976,236.6 972.198,172.898 972.4,237.799 "/>
<polygon fill="#006838" points="979.1,237.199 977.1,204.799 981.6,237.699 "/>
<polygon fill="#006838" points="981,230.799 979,198.499 983.5,231.299 "/>
<polygon fill="#006838" points="981.4,234.699 983.4,202.299 978.9,235.199 "/>
<polygon fill="#006838" points="983.6,231.6 985.6,199.199 981.1,232.1 "/>
<polygon fill="#006838" points="980.6,241.499 978.6,209.1 983.1,241.999 "/>
<polygon fill="#006838" points="979.9,235.898 982.4,193.999 982.3,236.699 "/>
<polygon fill="#006838" points="1153.093,240.999 1151.093,208.6 1155.593,241.499 "/>
<polygon fill="#006838" points="1154.99,234.6 1152.99,202.199 1157.49,235.1 "/>
<polygon fill="#006838" points="1155.392,238.499 1157.392,206.1 1152.892,238.999 "/>
<polygon fill="#006838" points="1157.593,235.299 1159.593,202.999 1155.093,235.799 "/>
<polygon fill="#006838" points="1154.392,246.499 1152.392,214.1 1156.892,246.999 "/>
<polygon fill="#006838" points="1153.892,239.699 1156.392,197.699 1156.291,240.499 "/>
<polygon fill="#006838" points="1148.49,243.499 1145.892,201.6 1150.99,243.999 "/>
<polygon fill="#006838" points="1149.291,243.299 1151.791,201.299 1151.692,243.999 "/>
<polygon fill="#006838" points="1147.791,244.799 1150.291,202.799 1150.192,245.499 "/>
<polygon fill="#006838" points="1150.392,243.398 1152.892,201.499 1152.791,244.199 "/>
<polygon fill="#006838" points="964.9,240.699 962.9,208.299 967.4,241.199 "/>
<polygon fill="#006838" points="966.698,234.299 964.698,201.999 969.198,234.799 "/>
<polygon fill="#006838" points="967.1,238.199 969.1,205.799 964.6,238.699 "/>
<polygon fill="#006838" points="969.4,235.1 971.4,202.699 966.9,235.6 "/>
<polygon fill="#006838" points="966.1,246.199 964.1,213.799 968.6,246.699 "/>
<polygon fill="#006838" points="965.6,239.398 968.1,197.499 968.1,240.199 "/>
<polygon fill="#006838" points="960.3,243.299 957.6,201.299 962.8,243.799 "/>
<polygon fill="#006838" points="961,242.999 963.5,200.999 963.5,243.799 "/>
<polygon fill="#006838" points="959.5,244.499 962,202.499 962,245.299 "/>
<polygon fill="#006838" points="962.1,243.199 964.6,201.199 964.6,243.999 "/>
<polygon fill="#006838" points="1158.49,249.6 1156.49,217.199 1160.99,250.1 "/>
<polygon fill="#006838" points="1160.392,243.199 1158.392,210.799 1162.892,243.699 "/>
<polygon fill="#006838" points="1160.692,247.1 1162.692,214.699 1158.192,247.6 "/>
<polygon fill="#006838" points="1159.99,253.898 1157.99,221.499 1162.49,254.398 "/>
<polygon fill="#006838" points="1159.291,248.299 1161.791,206.299 1161.692,249.1 "/>
<polygon fill="#006838" points="820.904,254.298 818.904,221.898 823.404,254.798 "/>
<polygon fill="#006838" points="822.803,247.898 820.803,215.498 825.303,248.398 "/>
<polygon fill="#006838" points="823.202,251.798 825.202,219.398 820.702,252.298 "/>
<polygon fill="#006838" points="825.404,248.698 827.404,216.298 822.904,249.198 "/>
<polygon fill="#006838" points="822.202,259.798 820.202,227.398 824.702,260.298 "/>
<polygon fill="#006838" points="821.702,252.998 824.202,210.998 824.104,253.798 "/>
<polygon fill="#006838" points="223.134,257.298 220.031,208.098 226.831,257.998 "/>
<polygon fill="#006838" points="225.934,247.598 222.934,198.498 229.734,248.398 "/>
<polygon fill="#006838" points="226.531,253.498 229.531,204.298 222.734,254.198 "/>
<polygon fill="#006838" points="229.934,248.698 232.934,199.598 226.134,249.498 "/>
<polygon fill="#006838" points="224.934,265.598 221.934,216.498 228.734,266.398 "/>
<polygon fill="#006838" points="228.031,255.298 224.234,191.598 224.434,256.498 "/>
<polygon fill="#006838" points="816.104,258.998 814.104,226.598 818.604,259.498 "/>
<polygon fill="#006838" points="818.004,252.598 816.004,220.198 820.504,253.098 "/>
<polygon fill="#006838" points="818.404,256.498 820.404,224.098 815.904,256.998 "/>
<polygon fill="#006838" points="820.604,253.298 822.604,220.998 818.104,253.798 "/>
<polygon fill="#006838" points="817.604,263.298 815.604,230.898 820.104,263.798 "/>
<polygon fill="#006838" points="816.904,257.698 819.404,215.698 819.303,258.498 "/>
<polygon fill="#006838" points="831.104,258.198 829.104,225.798 833.604,258.698 "/>
<polygon fill="#006838" points="833.004,251.798 831.004,219.498 835.504,252.298 "/>
<polygon fill="#006838" points="833.404,255.698 835.404,223.298 830.904,256.198 "/>
<polygon fill="#006838" points="835.604,252.598 837.604,220.198 833.104,253.098 "/>
<polygon fill="#006838" points="832.404,263.698 830.404,231.298 834.904,264.198 "/>
<polygon fill="#006838" points="831.904,256.898 834.404,214.998 834.303,257.698 "/>
<polygon fill="#006838" points="826.504,260.798 823.904,218.798 829.004,261.298 "/>
<polygon fill="#006838" points="827.303,260.498 829.803,218.498 829.702,261.298 "/>
<polygon fill="#006838" points="825.803,261.998 828.303,219.998 828.202,262.798 "/>
<polygon fill="#006838" points="828.404,260.698 830.904,218.698 830.803,261.498 "/>
<polygon fill="#006838" points="216.934,259.498 214.934,227.098 219.434,259.998 "/>
<polygon fill="#006838" points="218.734,253.098 216.734,220.698 221.234,253.598 "/>
<polygon fill="#006838" points="219.134,256.998 221.134,224.598 216.634,257.498 "/>
<polygon fill="#006838" points="221.434,253.798 223.434,221.498 218.934,254.298 "/>
<polygon fill="#006838" points="218.134,264.998 216.134,232.598 220.634,265.498 "/>
<polygon fill="#006838" points="217.634,258.198 220.134,216.198 220.134,258.998 "/>
<polygon fill="#006838" points="214.134,261.898 216.634,219.998 216.634,262.698 "/>
<polygon fill="#006838" points="836.504,266.798 834.504,234.498 839.004,267.298 "/>
<polygon fill="#006838" points="838.404,260.498 836.404,228.098 840.904,260.998 "/>
<polygon fill="#006838" points="838.702,264.298 840.702,231.998 836.202,264.798 "/>
<polygon fill="#006838" points="838.004,271.098 836.004,238.798 840.504,271.598 "/>
<polygon fill="#006838" points="837.303,265.598 839.803,223.598 839.702,266.298 "/>
<polygon fill="#006838" points="1203.892,218.898 1201.892,186.499 1206.392,219.398 "/>
<polygon fill="#006838" points="1205.692,212.499 1203.692,180.1 1208.192,212.999 "/>
<polygon fill="#006838" points="1206.093,216.398 1208.093,183.999 1203.593,216.898 "/>
<polygon fill="#006838" points="1205.093,224.398 1203.093,191.999 1207.593,224.898 "/>
<polygon fill="#006838" points="1204.593,217.6 1207.093,175.6 1207.093,218.398 "/>
<polygon fill="#006838" points="1199.291,221.499 1196.593,179.499 1201.791,221.898 "/>
<polygon fill="#006838" points="1199.99,221.199 1202.49,179.199 1202.49,221.999 "/>
<polygon fill="#006838" points="1198.49,222.699 1200.99,180.699 1200.99,223.499 "/>
<polygon fill="#006838" points="1201.093,221.398 1203.593,179.398 1203.593,222.1 "/>
<polygon fill="#006838" points="1180.892,227.299 1178.892,194.898 1183.392,227.799 "/>
<polygon fill="#006838" points="1182.791,220.898 1180.791,188.499 1185.291,221.398 "/>
<polygon fill="#006838" points="1183.192,224.799 1185.192,192.398 1180.692,225.299 "/>
<polygon fill="#006838" points="1185.392,221.699 1187.392,189.299 1182.892,222.199 "/>
<polygon fill="#006838" points="1182.192,232.799 1180.192,200.398 1184.692,233.299 "/>
<polygon fill="#006838" points="1181.692,225.999 1184.192,183.999 1184.093,226.799 "/>
<polygon fill="#006838" points="1168.093,233.299 1164.99,184.1 1171.791,233.999 "/>
<polygon fill="#006838" points="1170.892,223.6 1167.892,174.499 1174.692,224.398 "/>
<polygon fill="#006838" points="1171.49,229.499 1174.49,180.299 1167.692,230.199 "/>
<polygon fill="#006838" points="1174.892,224.699 1177.892,175.6 1171.093,225.499 "/>
<polygon fill="#006838" points="1169.892,241.6 1166.892,192.499 1173.692,242.398 "/>
<polygon fill="#006838" points="1172.99,231.299 1169.192,167.6 1169.392,232.499 "/>
<polygon fill="#006838" points="1176.093,231.999 1174.093,199.6 1178.593,232.499 "/>
<polygon fill="#006838" points="1177.99,225.6 1175.99,193.199 1180.49,226.1 "/>
<polygon fill="#006838" points="1178.392,229.499 1180.392,197.1 1175.892,229.999 "/>
<polygon fill="#006838" points="1180.593,226.299 1182.593,193.999 1178.093,226.799 "/>
<polygon fill="#006838" points="1177.593,236.299 1175.593,203.898 1180.093,236.799 "/>
<polygon fill="#006838" points="1176.892,230.699 1179.392,188.699 1179.291,231.499 "/>
<polygon fill="#006838" points="1191.093,231.199 1189.093,198.799 1193.593,231.699 "/>
<polygon fill="#006838" points="1192.99,224.799 1190.99,192.499 1195.49,225.299 "/>
<polygon fill="#006838" points="1193.392,228.699 1195.392,196.299 1190.892,229.199 "/>
<polygon fill="#006838" points="1195.593,225.6 1197.593,193.199 1193.093,226.1 "/>
<polygon fill="#006838" points="1192.392,236.699 1190.392,204.299 1194.892,237.199 "/>
<polygon fill="#006838" points="1191.892,229.898 1194.392,187.999 1194.291,230.699 "/>
<polygon fill="#006838" points="1186.49,233.799 1183.892,191.799 1188.99,234.299 "/>
<polygon fill="#006838" points="1187.291,233.499 1189.791,191.499 1189.692,234.299 "/>
<polygon fill="#006838" points="1185.791,234.999 1188.291,192.999 1188.192,235.799 "/>
<polygon fill="#006838" points="1188.392,233.699 1190.892,191.699 1190.791,234.499 "/>
<polygon fill="#006838" points="1161.892,235.499 1159.892,203.1 1164.392,235.999 "/>
<polygon fill="#006838" points="1163.692,229.1 1161.692,196.699 1166.192,229.6 "/>
<polygon fill="#006838" points="1164.093,232.999 1166.093,200.6 1161.593,233.499 "/>
<polygon fill="#006838" points="1166.392,229.799 1168.392,197.499 1163.892,230.299 "/>
<polygon fill="#006838" points="1163.093,240.999 1161.093,208.6 1165.593,241.499 "/>
<polygon fill="#006838" points="1162.593,234.199 1165.093,192.199 1165.093,234.999 "/>
<polygon fill="#006838" points="1159.093,237.898 1161.593,195.999 1161.593,238.699 "/>
<polygon fill="#006838" points="1196.49,239.799 1194.49,207.499 1198.99,240.299 "/>
<polygon fill="#006838" points="1198.392,233.499 1196.392,201.1 1200.892,233.999 "/>
<polygon fill="#006838" points="1198.692,237.299 1200.692,204.999 1196.192,237.799 "/>
<polygon fill="#006838" points="1197.99,244.1 1195.99,211.799 1200.49,244.6 "/>
<polygon fill="#006838" points="1197.291,238.6 1199.791,196.6 1199.692,239.299 "/>
</svg>
