<?xml version="1.0" encoding="utf-8"?>
<!-- Generator: Adobe Illustrator 16.0.0, SVG Export Plug-In . SVG Version: 6.00 Build 0)  -->
<!DOCTYPE svg PUBLIC "-//W3C//DTD SVG 1.1//EN" "http://www.w3.org/Graphics/SVG/1.1/DTD/svg11.dtd">
<svg version="1.1" id="Layer_1" xmlns="http://www.w3.org/2000/svg" xmlns:xlink="http://www.w3.org/1999/xlink" x="0px" y="0px"
	 width="1200px" height="220px" viewBox="0 0 1200 220" style="enable-background:new 0 0 1200 220;" xml:space="preserve">
<style type="text/css">
<![CDATA[
	.st0{fill:#858E8D;}
	.st1{fill:#8B5E3C;}
	.st2{fill:#58595B;}
	.st3{fill:#292424;}
	.st4{display:none;fill:#ED1C24;}
]]>
</style>
<rect x="-5" y="179.3" class="st3" width="1220" height="20"/>
<polyline class="st0" points="1200,179.2 -1.4,179.2 -1.4,185.8 1200,185.8 "/>
<g>
	<rect x="0" y="183.5" class="st1" width="16.6" height="7.4"/>
	<rect x="33.4" y="183.5" class="st1" width="16.6" height="7.4"/>
	<rect x="66.7" y="183.5" class="st1" width="16.6" height="7.4"/>
	<rect x="100" y="183.5" class="st1" width="16.6" height="7.4"/>
	<rect x="133.4" y="183.5" class="st1" width="16.6" height="7.4"/>
	<rect x="166.7" y="183.5" class="st1" width="16.6" height="7.4"/>
	<rect x="200" y="183.5" class="st1" width="16.6" height="7.4"/>
	<rect x="233.4" y="183.5" class="st1" width="16.6" height="7.4"/>
	<rect x="266.7" y="183.5" class="st1" width="16.6" height="7.4"/>
	<rect x="300" y="183.5" class="st1" width="16.6" height="7.4"/>
	<rect x="333.3" y="183.5" class="st1" width="16.6" height="7.4"/>
	<rect x="366.7" y="183.5" class="st1" width="16.6" height="7.4"/>
	<rect x="400" y="183.5" class="st1" width="16.6" height="7.4"/>
	<rect x="433.3" y="183.5" class="st1" width="16.6" height="7.4"/>
	<rect x="466.7" y="183.5" class="st1" width="16.6" height="7.4"/>
	<rect x="500" y="183.5" class="st1" width="16.6" height="7.4"/>
	<rect x="533.4" y="183.5" class="st1" width="16.6" height="7.4"/>
	<rect x="566.7" y="183.5" class="st1" width="16.6" height="7.4"/>
	<rect x="600" y="183.5" class="st1" width="16.6" height="7.4"/>
	<rect x="633.3" y="183.5" class="st1" width="16.6" height="7.4"/>
	<rect x="666.6" y="183.5" class="st1" width="16.6" height="7.4"/>
	<rect x="700" y="183.5" class="st1" width="16.6" height="7.4"/>
	<rect x="733.3" y="183.5" class="st1" width="16.6" height="7.4"/>
	<rect x="766.7" y="183.5" class="st1" width="16.6" height="7.4"/>
	<rect x="800" y="183.5" class="st1" width="16.6" height="7.4"/>
	<rect x="833.3" y="183.5" class="st1" width="16.6" height="7.4"/>
	<rect x="866.7" y="183.5" class="st1" width="16.6" height="7.4"/>
	<rect x="900" y="183.5" class="st1" width="16.6" height="7.4"/>
	<rect x="933.3" y="183.5" class="st1" width="16.6" height="7.4"/>
	<rect x="966.7" y="183.5" class="st1" width="16.6" height="7.4"/>
	<rect x="1000" y="183.5" class="st1" width="16.6" height="7.4"/>
	<rect x="1033.3" y="183.5" class="st1" width="16.6" height="7.4"/>
	<rect x="1066.6" y="183.5" class="st1" width="16.6" height="7.4"/>
	<rect x="1100" y="183.5" class="st1" width="16.6" height="7.4"/>
	<rect x="1133.4" y="183.5" class="st1" width="16.6" height="7.4"/>
	<rect x="1166.7" y="183.5" class="st1" width="16.6" height="7.4"/>
</g>
<g>
	<g>
		<polygon class="st2" points="0,192.5 0,197.4 2.4,197.4 		"/>
		<polygon class="st2" points="0,201.8 0,195.7 5.8,196.1 6.4,201.8 		"/>
		<polygon class="st2" points="4.3,197.1 7.3,193.7 12.9,198.5 10.4,200.2 7.8,200.8 		"/>
		<polygon class="st2" points="1.8,194.6 2.6,189.8 7,193 6.3,198.1 2.2,195 		"/>
		<polygon class="st2" points="7.8,191.2 11.6,188.9 19,194.1 16.4,197.7 11.2,196.5 		"/>
		<polygon class="st2" points="16.9,188.5 14.6,192.6 23.2,196.1 25.7,193.3 		"/>
		<polygon class="st2" points="23.8,190.6 21.6,194.6 29.4,195.8 30.1,193 		"/>
		<polygon class="st2" points="16.8,198.4 23.4,199.5 24.2,194.7 16.5,196.7 		"/>
		<polygon class="st2" points="28,193.3 28,190.6 31.3,188.8 32.1,189.5 32.2,193 31.2,195.4 		"/>
		<polygon class="st2" points="20.3,190.8 22.2,188.6 25.4,191.2 21.9,193.7 		"/>
		<polygon class="st2" points="25,188.1 29.6,188.9 28,191.5 24.6,190.6 23,188.6 		"/>
		<polygon class="st2" points="18.6,188.2 21.7,188.2 22.1,191.3 19.4,190.8 		"/>
		<polygon class="st2" points="22.4,196.8 27.4,194 27.9,197.4 26,200.3 22.7,197 		"/>
		<g>
			<polygon class="st2" points="60.8,196 60.8,191 58.4,191 			"/>
			<polygon class="st2" points="60.8,186.7 60.8,192.7 55,192.3 54.4,186.8 			"/>
			<polygon class="st2" points="56.5,191.3 53.5,194.7 47.9,189.9 50.4,188.4 53,187.7 			"/>
			<polygon class="st2" points="59,193.9 58.2,198.7 53.7,195.4 54.5,190.3 58.6,193.4 			"/>
			<polygon class="st2" points="53,197.4 49.2,199.6 41.8,194.3 44.4,190.8 49.6,191.9 			"/>
			<polygon class="st2" points="43.9,199.9 46.2,195.8 37.6,192.3 35.1,195.3 			"/>
			<polygon class="st2" points="37,197.8 39.2,194 31.4,192.6 30.7,195.4 			"/>
			<polygon class="st2" points="44,190.1 37.4,189.1 36.6,193.7 44.3,191.9 			"/>
			<polygon class="st2" points="32.8,195.1 32.8,197.8 29.5,199.6 28.7,198.9 28.6,195.4 29.6,193 			"/>
			<polygon class="st2" points="35.8,200.3 31.2,199.6 32.8,197 36.2,197.8 37.8,199.8 			"/>
			<polygon class="st2" points="42.2,200.3 39.1,200.3 38.7,197.1 41.4,197.7 			"/>
			<polygon class="st2" points="38.4,191.6 33.4,194.6 32.9,191 34.8,188.1 38.1,191.5 			"/>
		</g>
	</g>
	<g>
		<polygon class="st2" points="119.6,196 119.6,191 117.2,191 		"/>
		<polygon class="st2" points="119.6,186.7 119.6,192.7 113.9,192.3 113.2,186.8 		"/>
		<polygon class="st2" points="115.4,191.3 112.3,194.7 106.7,189.9 109.2,188.4 111.9,187.7 		"/>
		<polygon class="st2" points="117.8,193.9 117,198.7 112.6,195.4 113.3,190.3 117.4,193.4 		"/>
		<polygon class="st2" points="111.8,197.4 108,199.6 100.6,194.3 103.2,190.8 108.5,191.9 		"/>
		<polygon class="st2" points="102.7,199.9 105,195.8 96.5,192.3 94,195.3 		"/>
		<polygon class="st2" points="95.9,197.8 98,194 90.2,192.6 89.5,195.4 		"/>
		<polygon class="st2" points="102.8,190.1 96.2,189.1 95.5,193.7 103.1,191.9 		"/>
		<polygon class="st2" points="91.6,195.1 91.6,197.8 88.4,199.6 87.5,198.9 87.5,195.4 88.5,193 		"/>
		<polygon class="st2" points="99.4,197.7 97.5,199.8 94.2,197.4 97.7,194.7 		"/>
		<polygon class="st2" points="94.6,200.3 90,199.6 91.6,197 95,197.8 96.6,199.8 		"/>
		<polygon class="st2" points="101,200.3 98,200.3 97.5,197.1 100.2,197.7 		"/>
		<polygon class="st2" points="97.2,191.6 92.2,194.6 91.7,191 93.6,188.1 96.9,191.5 		"/>
		<g>
			<polygon class="st2" points="58.8,192.5 58.8,197.4 61.3,197.4 			"/>
			<polygon class="st2" points="58.8,201.8 58.8,195.7 64.6,196.1 65.3,201.8 			"/>
			<polygon class="st2" points="63.1,197.1 66.1,193.7 71.8,198.5 69.2,200.2 66.6,200.8 			"/>
			<polygon class="st2" points="60.6,194.6 61.5,189.8 65.9,193 65.1,198.1 61,195 			"/>
			<polygon class="st2" points="66.7,191.2 70.4,188.9 77.8,194.1 75.3,197.7 70,196.5 			"/>
			<polygon class="st2" points="75.8,188.5 73.4,192.6 82,196.1 84.5,193.3 			"/>
			<polygon class="st2" points="82.6,190.6 80.4,194.6 88.3,195.8 88.9,193 			"/>
			<polygon class="st2" points="75.7,198.4 82.3,199.5 83,194.7 75.3,196.7 			"/>
			<polygon class="st2" points="86.8,193.3 86.8,190.6 90.1,188.8 90.9,189.5 91,193 90,195.4 			"/>
			<polygon class="st2" points="83.8,188.1 88.4,188.9 86.8,191.5 83.4,190.6 81.8,188.6 			"/>
			<polygon class="st2" points="77.4,188.2 80.5,188.2 80.9,191.3 78.3,190.8 			"/>
			<polygon class="st2" points="81.3,196.8 86.3,194 86.8,197.4 84.8,200.3 81.5,197 			"/>
		</g>
	</g>
	<g>
		<polygon class="st2" points="178.5,195 178.5,190.1 176,190.1 		"/>
		<polygon class="st2" points="178.5,185.7 178.5,191.9 172.7,191.3 172,185.8 		"/>
		<polygon class="st2" points="174.2,190.5 171.2,193.9 165.5,189.1 168.1,187.4 170.7,186.8 		"/>
		<polygon class="st2" points="176.7,193 175.8,197.7 171.4,194.6 172.2,189.5 176.2,192.6 		"/>
		<polygon class="st2" points="170.6,196.4 166.9,198.7 159.5,193.3 162,189.8 167.3,191 		"/>
		<polygon class="st2" points="161.5,198.9 163.9,194.8 155.3,191.3 152.8,194.3 		"/>
		<polygon class="st2" points="154.7,196.8 156.9,193 149,191.7 148.4,194.6 		"/>
		<polygon class="st2" points="161.6,189.1 155,188.1 154.3,192.7 162,190.9 		"/>
		<polygon class="st2" points="150.5,194.1 150.5,196.8 147.2,198.8 146.4,198.1 146.3,194.6 147.3,192 		"/>
		<polygon class="st2" points="158.2,196.8 156.3,198.9 153,196.4 156.5,193.9 		"/>
		<polygon class="st2" points="153.5,199.5 148.9,198.7 150.5,196.1 153.9,196.8 155.5,198.9 		"/>
		<polygon class="st2" points="159.9,199.4 156.8,199.4 156.4,196.1 159,196.8 		"/>
		<polygon class="st2" points="156,190.6 151,193.6 150.5,190.2 152.5,187.1 155.8,190.5 		"/>
		<g>
			<polygon class="st2" points="117.7,191.6 117.7,196.5 120.1,196.5 			"/>
			<polygon class="st2" points="117.7,200.9 117.7,194.7 123.4,195.3 124.1,200.8 			"/>
			<polygon class="st2" points="121.9,196.1 124.9,192.7 130.6,197.5 128,199.2 125.4,199.8 			"/>
			<polygon class="st2" points="119.5,193.6 120.3,188.9 124.7,192 124,197.1 119.9,194 			"/>
			<polygon class="st2" points="125.5,190.2 129.3,187.9 136.7,193.3 134.1,196.8 128.8,195.6 			"/>
			<polygon class="st2" points="134.6,187.7 132.3,191.7 140.8,195.3 143.3,192.3 			"/>
			<polygon class="st2" points="141.4,189.8 139.3,193.6 147.1,194.8 147.8,192 			"/>
			<polygon class="st2" points="134.5,197.5 141.1,198.5 141.8,193.9 134.2,195.7 			"/>
			<polygon class="st2" points="145.7,192.5 145.7,189.8 148.9,187.8 149.8,188.5 149.8,192 148.8,194.6 			"/>
			<polygon class="st2" points="142.7,187.1 147.3,187.9 145.7,190.5 142.3,189.8 140.7,187.7 			"/>
			<polygon class="st2" points="136.3,187.2 139.3,187.2 139.8,190.5 137.1,189.8 			"/>
			<polygon class="st2" points="140.1,195.8 145.1,193 145.6,196.4 143.7,199.4 140.4,196.1 			"/>
		</g>
	</g>
	<g>
		<polygon class="st2" points="176.4,191.6 176.4,196.5 178.8,196.5 		"/>
		<polygon class="st2" points="176.4,200.9 176.4,194.7 182.1,195.3 182.8,200.8 		"/>
		<polygon class="st2" points="180.6,196.1 183.7,192.7 189.3,197.5 186.8,199.2 184.1,199.8 		"/>
		<polygon class="st2" points="178.2,193.6 179,188.9 183.4,192 182.7,197.1 178.6,194 		"/>
		<polygon class="st2" points="184.2,190.2 188,187.9 195.4,193.3 192.8,196.8 187.5,195.6 		"/>
		<polygon class="st2" points="193.3,187.7 191,191.7 199.5,195.3 202,192.3 		"/>
		<polygon class="st2" points="200.1,189.8 198,193.6 205.8,194.8 206.5,192 		"/>
		<polygon class="st2" points="193.2,197.5 199.8,198.5 200.5,193.9 192.9,195.7 		"/>
		<polygon class="st2" points="204.4,192.5 204.4,189.8 207.6,187.8 208.5,188.5 208.5,192 207.5,194.6 		"/>
		<polygon class="st2" points="196.6,189.8 198.5,187.7 201.8,190.2 198.3,192.7 		"/>
		<polygon class="st2" points="201.4,187.1 206,187.9 204.4,190.5 201,189.8 199.4,187.7 		"/>
		<polygon class="st2" points="195,187.2 198,187.2 198.5,190.5 195.8,189.8 		"/>
		<polygon class="st2" points="198.8,195.8 203.8,193 204.3,196.4 202.4,199.4 199.1,196.1 		"/>
		<g>
			<polygon class="st2" points="237.2,195 237.2,190.1 234.8,190.1 			"/>
			<polygon class="st2" points="237.2,185.7 237.2,191.9 231.4,191.3 230.8,185.8 			"/>
			<polygon class="st2" points="232.9,190.5 229.9,193.9 224.3,189.1 226.8,187.4 229.4,186.8 			"/>
			<polygon class="st2" points="235.4,193 234.5,197.7 230.1,194.6 230.9,189.5 235,192.6 			"/>
			<polygon class="st2" points="229.3,196.4 225.6,198.7 218.2,193.3 220.8,189.8 226,191 			"/>
			<polygon class="st2" points="220.3,198.9 222.6,194.8 214,191.3 211.5,194.3 			"/>
			<polygon class="st2" points="213.4,196.8 215.6,193 207.8,191.7 207.1,194.6 			"/>
			<polygon class="st2" points="220.3,189.1 213.8,188.1 213,192.7 220.7,190.9 			"/>
			<polygon class="st2" points="209.2,194.1 209.2,196.8 205.9,198.8 205.1,198.1 205,194.6 206,192 			"/>
			<polygon class="st2" points="212.2,199.5 207.6,198.7 209.2,196.1 212.6,196.8 214.2,198.9 			"/>
			<polygon class="st2" points="218.6,199.4 215.5,199.4 215.1,196.1 217.8,196.8 			"/>
			<polygon class="st2" points="214.7,190.6 209.7,193.6 209.2,190.2 211.2,187.1 214.5,190.5 			"/>
		</g>
	</g>
	<g>
		<polygon class="st2" points="296,195 296,190.1 293.6,190.1 		"/>
		<polygon class="st2" points="296,185.7 296,191.9 290.3,191.3 289.6,185.8 		"/>
		<polygon class="st2" points="291.8,190.5 288.7,193.9 283.1,189.1 285.6,187.4 288.2,186.8 		"/>
		<polygon class="st2" points="294.2,193 293.4,197.7 289,194.6 289.7,189.5 293.8,192.6 		"/>
		<polygon class="st2" points="288.2,196.4 284.4,198.7 277,193.3 279.6,189.8 284.8,191 		"/>
		<polygon class="st2" points="279.1,198.9 281.4,194.8 272.8,191.3 270.3,194.3 		"/>
		<polygon class="st2" points="272.3,196.8 274.4,193 266.6,191.7 265.9,194.6 		"/>
		<polygon class="st2" points="279.2,189.1 272.6,188.1 271.8,192.7 279.5,190.9 		"/>
		<polygon class="st2" points="268,194.1 268,196.8 264.8,198.8 263.9,198.1 263.8,194.6 264.8,192 		"/>
		<polygon class="st2" points="275.8,196.8 273.8,198.9 270.6,196.4 274.1,193.9 		"/>
		<polygon class="st2" points="271,199.5 266.4,198.7 268,196.1 271.4,196.8 273,198.9 		"/>
		<polygon class="st2" points="277.4,199.4 274.3,199.4 273.9,196.1 276.6,196.8 		"/>
		<polygon class="st2" points="273.6,190.6 268.6,193.6 268.1,190.2 270,187.1 273.3,190.5 		"/>
		<g>
			<polygon class="st2" points="235.2,191.6 235.2,196.5 237.6,196.5 			"/>
			<polygon class="st2" points="235.2,200.9 235.2,194.7 241,195.3 241.6,200.8 			"/>
			<polygon class="st2" points="239.5,196.1 242.5,192.7 248.1,197.5 245.6,199.2 243,199.8 			"/>
			<polygon class="st2" points="237,193.6 237.8,188.9 242.3,192 241.5,197.1 237.4,194 			"/>
			<polygon class="st2" points="243,190.2 246.8,187.9 254.2,193.3 251.6,196.8 246.4,195.6 			"/>
			<polygon class="st2" points="252.1,187.7 249.8,191.7 258.4,195.3 260.9,192.3 			"/>
			<polygon class="st2" points="259,189.8 256.8,193.6 264.6,194.8 265.3,192 			"/>
			<polygon class="st2" points="252,197.5 258.6,198.5 259.4,193.9 251.7,195.7 			"/>
			<polygon class="st2" points="263.2,192.5 263.2,189.8 266.5,187.8 267.3,188.5 267.4,192 266.4,194.6 			"/>
			<polygon class="st2" points="260.2,187.1 264.8,187.9 263.2,190.5 259.8,189.8 258.2,187.7 			"/>
			<polygon class="st2" points="253.8,187.2 256.9,187.2 257.3,190.5 254.6,189.8 			"/>
			<polygon class="st2" points="257.6,195.8 262.6,193 263.1,196.4 261.2,199.4 257.9,196.1 			"/>
		</g>
	</g>
	<g>
		<polygon class="st2" points="354.8,194 354.8,189.1 352.4,189.1 		"/>
		<polygon class="st2" points="354.8,184.8 354.8,190.9 349.1,190.5 348.4,184.8 		"/>
		<polygon class="st2" points="350.6,189.5 347.6,192.9 341.9,188.1 344.5,186.4 347.1,185.8 		"/>
		<polygon class="st2" points="353,192 352.2,196.8 347.8,193.6 348.5,188.5 352.6,191.6 		"/>
		<polygon class="st2" points="347,195.4 343.3,197.7 335.8,192.5 338.4,188.9 343.7,190.1 		"/>
		<polygon class="st2" points="337.9,198.1 340.3,194 331.7,190.5 329.2,193.3 		"/>
		<polygon class="st2" points="331.1,196 333.3,192 325.4,190.8 324.8,193.6 		"/>
		<polygon class="st2" points="338,188.2 331.4,187.1 330.7,191.9 338.3,189.9 		"/>
		<polygon class="st2" points="326.8,193.3 326.8,196 323.6,197.8 322.8,197.1 322.7,193.6 323.7,191.2 		"/>
		<polygon class="st2" points="334.6,195.8 332.7,198 329.4,195.4 332.9,192.9 		"/>
		<polygon class="st2" points="329.8,198.5 325.3,197.7 326.8,195.1 330.3,196 331.8,198 		"/>
		<polygon class="st2" points="336.3,198.4 333.2,198.4 332.8,195.3 335.4,195.8 		"/>
		<polygon class="st2" points="332.4,189.8 327.4,192.6 326.9,189.2 328.8,186.2 332.1,189.5 		"/>
		<g>
			<polygon class="st2" points="294,190.6 294,195.6 296.5,195.6 			"/>
			<polygon class="st2" points="294,199.9 294,193.9 299.8,194.3 300.5,199.8 			"/>
			<polygon class="st2" points="298.3,195.3 301.3,191.9 307,196.7 304.4,198.2 301.8,198.9 			"/>
			<polygon class="st2" points="295.8,192.6 296.7,187.9 301.1,191.2 300.3,196.1 296.3,193.2 			"/>
			<polygon class="st2" points="301.9,189.2 305.6,186.9 313,192.3 310.5,195.8 305.2,194.7 			"/>
			<polygon class="st2" points="311,186.7 308.6,190.8 317.2,194.3 319.7,191.3 			"/>
			<polygon class="st2" points="317.8,188.8 315.6,192.6 323.5,194 324.1,191.2 			"/>
			<polygon class="st2" points="310.9,196.5 317.5,197.5 318.2,192.9 310.5,194.7 			"/>
			<polygon class="st2" points="322,191.5 322,188.8 325.3,186.9 326.1,187.7 326.2,191.2 325.2,193.6 			"/>
			<polygon class="st2" points="319,186.2 323.6,186.9 322,189.6 318.6,188.8 317,186.8 			"/>
			<polygon class="st2" points="312.6,186.2 315.7,186.2 316.1,189.5 313.5,188.9 			"/>
			<polygon class="st2" points="316.5,195 321.5,192 322,195.6 320,198.5 316.7,195.1 			"/>
		</g>
	</g>
	<g>
		<polygon class="st2" points="349.8,189.8 349.8,194.7 352.2,194.7 		"/>
		<polygon class="st2" points="349.8,199.1 349.8,193 355.5,193.4 356.2,198.9 		"/>
		<polygon class="st2" points="354,194.4 357,191 362.7,195.8 360.1,197.4 357.5,198.1 		"/>
		<polygon class="st2" points="351.5,191.9 352.4,187.1 356.8,190.3 356,195.4 352,192.3 		"/>
		<polygon class="st2" points="357.6,188.4 361.3,186.1 368.8,191.5 366.2,195 360.9,193.9 		"/>
		<polygon class="st2" points="366.7,185.8 364.3,189.9 372.9,193.4 375.4,190.5 		"/>
		<polygon class="st2" points="373.5,187.9 371.3,191.7 379.2,193.2 379.8,190.3 		"/>
		<polygon class="st2" points="366.6,195.7 373.2,196.7 373.9,192 366.3,193.9 		"/>
		<polygon class="st2" points="377.8,190.6 377.8,187.9 381,186.1 381.8,186.8 381.9,190.3 380.9,192.7 		"/>
		<polygon class="st2" points="370,188.1 371.9,186 375.2,188.4 371.7,191 		"/>
		<polygon class="st2" points="374.8,185.4 379.3,186.1 377.8,188.8 374.3,187.9 372.8,186 		"/>
		<polygon class="st2" points="368.3,185.4 371.4,185.4 371.8,188.6 369.2,188.1 		"/>
		<polygon class="st2" points="372.2,194.1 377.2,191.2 377.7,194.7 375.8,197.7 372.4,194.3 		"/>
		<g>
			<polygon class="st2" points="410.5,193.3 410.5,188.4 408.1,188.4 			"/>
			<polygon class="st2" points="410.5,184 410.5,190.1 404.8,189.6 404.1,184 			"/>
			<polygon class="st2" points="406.3,188.6 403.3,192 397.6,187.2 400.2,185.5 402.8,185 			"/>
			<polygon class="st2" points="408.7,191.2 407.9,196 403.5,192.7 404.2,187.7 408.3,190.8 			"/>
			<polygon class="st2" points="402.7,194.6 399,196.8 391.5,191.6 394.1,188.1 399.4,189.2 			"/>
			<polygon class="st2" points="393.6,197.2 396,193.2 387.4,189.6 384.9,192.5 			"/>
			<polygon class="st2" points="386.8,195.1 389,191.2 381.1,189.9 380.5,192.7 			"/>
			<polygon class="st2" points="393.7,187.4 387.1,186.2 386.4,191 394,189.1 			"/>
			<polygon class="st2" points="382.5,192.5 382.5,195.1 379.3,197 378.5,196.3 378.4,192.7 379.4,190.3 			"/>
			<polygon class="st2" points="385.5,197.7 381,196.8 382.5,194.3 386,195.1 387.5,197.1 			"/>
			<polygon class="st2" points="392,197.5 388.9,197.5 388.5,194.4 391.1,195 			"/>
			<polygon class="st2" points="388.1,188.9 383.1,191.7 382.6,188.4 384.5,185.4 387.9,188.8 			"/>
		</g>
	</g>
	<g>
		<polygon class="st2" points="469.4,193.3 469.4,188.4 467,188.4 		"/>
		<polygon class="st2" points="469.4,184 469.4,190.1 463.6,189.6 463,184 		"/>
		<polygon class="st2" points="465.1,188.6 462.1,192 456.5,187.2 459,185.5 461.6,185 		"/>
		<polygon class="st2" points="467.6,191.2 466.7,196 462.3,192.7 463.1,187.7 467.2,190.8 		"/>
		<polygon class="st2" points="461.5,194.6 457.8,196.8 450.4,191.6 453,188.1 458.2,189.2 		"/>
		<polygon class="st2" points="452.5,197.2 454.8,193.2 446.2,189.6 443.7,192.5 		"/>
		<polygon class="st2" points="445.6,195.1 447.8,191.2 440,189.9 439.3,192.7 		"/>
		<polygon class="st2" points="452.5,187.4 446,186.2 445.2,191 452.9,189.1 		"/>
		<polygon class="st2" points="441.4,192.5 441.4,195.1 438.1,197 437.3,196.3 437.2,192.7 438.2,190.3 		"/>
		<polygon class="st2" points="449.1,195 447.2,197.1 444,194.6 447.5,192 		"/>
		<polygon class="st2" points="444.4,197.7 439.8,196.8 441.4,194.3 444.8,195.1 446.4,197.1 		"/>
		<polygon class="st2" points="450.8,197.5 447.7,197.5 447.3,194.4 450,195 		"/>
		<polygon class="st2" points="446.9,188.9 441.9,191.7 441.4,188.4 443.4,185.4 446.7,188.8 		"/>
		<g>
			<polygon class="st2" points="408.6,189.8 408.6,194.7 411,194.7 			"/>
			<polygon class="st2" points="408.6,199.1 408.6,193 414.3,193.4 415,198.9 			"/>
			<polygon class="st2" points="412.8,194.4 415.9,191 421.5,195.8 419,197.4 416.4,198.1 			"/>
			<polygon class="st2" points="410.4,191.9 411.2,187.1 415.6,190.3 414.9,195.4 410.8,192.3 			"/>
			<polygon class="st2" points="416.4,188.4 420.2,186.1 427.6,191.5 425,195 419.8,193.9 			"/>
			<polygon class="st2" points="425.5,185.8 423.2,189.9 431.8,193.4 434.3,190.5 			"/>
			<polygon class="st2" points="432.3,187.9 430.2,191.7 438,193.2 438.7,190.3 			"/>
			<polygon class="st2" points="425.4,195.7 432,196.7 432.8,192 425.1,193.9 			"/>
			<polygon class="st2" points="436.6,190.6 436.6,187.9 439.8,186.1 440.7,186.8 440.8,190.3 439.8,192.7 			"/>
			<polygon class="st2" points="433.6,185.4 438.2,186.1 436.6,188.8 433.2,187.9 431.6,186 			"/>
			<polygon class="st2" points="427.2,185.4 430.3,185.4 430.7,188.6 428,188.1 			"/>
			<polygon class="st2" points="431,194.1 436,191.2 436.5,194.7 434.6,197.7 431.3,194.3 			"/>
		</g>
	</g>
	<g>
		<polygon class="st2" points="528.2,192.3 528.2,187.4 525.8,187.4 		"/>
		<polygon class="st2" points="528.2,183 528.2,189.1 522.5,188.6 521.8,183.1 		"/>
		<polygon class="st2" points="524,187.7 520.9,191.2 515.3,186.2 517.8,184.7 520.4,184.1 		"/>
		<polygon class="st2" points="526.4,190.3 525.6,195 521.2,191.7 521.9,186.8 526,189.8 		"/>
		<polygon class="st2" points="520.4,193.7 516.6,196 509.2,190.6 511.8,187.1 517,188.2 		"/>
		<polygon class="st2" points="511.3,196.3 513.6,192.2 505,188.6 502.5,191.6 		"/>
		<polygon class="st2" points="504.5,194.1 506.6,190.3 498.8,188.9 498.1,191.7 		"/>
		<polygon class="st2" points="511.4,186.4 504.8,185.4 504,190.1 511.7,188.2 		"/>
		<polygon class="st2" points="500.2,191.5 500.2,194.1 497,196 496.1,195.3 496,191.7 497,189.3 		"/>
		<polygon class="st2" points="508,194 506,196.1 502.8,193.7 506.3,191 		"/>
		<polygon class="st2" points="503.2,196.7 498.6,196 500.2,193.3 503.6,194.1 505.2,196.1 		"/>
		<polygon class="st2" points="509.6,196.7 506.5,196.7 506.1,193.4 508.8,194 		"/>
		<polygon class="st2" points="505.8,187.9 500.8,190.9 500.3,187.4 502.2,184.4 505.5,187.8 		"/>
		<g>
			<polygon class="st2" points="467.4,188.9 467.4,193.9 469.8,193.9 			"/>
			<polygon class="st2" points="467.4,198.1 467.4,192 473.2,192.5 473.8,198.1 			"/>
			<polygon class="st2" points="471.7,193.4 474.7,190.1 480.3,194.8 477.8,196.5 475.2,197.1 			"/>
			<polygon class="st2" points="469.2,190.9 470,186.2 474.5,189.3 473.7,194.4 469.6,191.3 			"/>
			<polygon class="st2" points="475.3,187.5 479,185.3 486.4,190.5 483.8,194 478.6,192.9 			"/>
			<polygon class="st2" points="484.3,184.8 482,189.1 490.6,192.6 493.1,189.6 			"/>
			<polygon class="st2" points="491.2,186.9 489,190.9 496.8,192.2 497.5,189.3 			"/>
			<polygon class="st2" points="484.3,194.7 490.8,195.8 491.6,191.2 483.9,193 			"/>
			<polygon class="st2" points="495.4,189.8 495.4,186.9 498.7,185.1 499.5,185.8 499.6,189.3 498.6,191.9 			"/>
			<polygon class="st2" points="492.4,184.4 497,185.3 495.4,187.8 492,186.9 490.4,185 			"/>
			<polygon class="st2" points="486,184.6 489.1,184.6 489.5,187.7 486.8,187.1 			"/>
			<polygon class="st2" points="489.9,193.2 494.9,190.3 495.4,193.7 493.4,196.7 490.1,193.4 			"/>
		</g>
	</g>
	<polygon class="st2" points="582.3,194.3 582.3,189.3 579.8,189.3 	"/>
	<polygon class="st2" points="582.3,185 582.3,191 576.5,190.6 575.8,185.1 	"/>
	<polygon class="st2" points="578,189.6 575,193 569.3,188.2 571.9,186.5 574.5,186 	"/>
	<polygon class="st2" points="580.5,192.2 579.6,197 575.2,193.7 576,188.6 580,191.7 	"/>
	<polygon class="st2" points="574.4,195.7 570.7,197.8 563.3,192.6 565.8,189.1 571.1,190.2 	"/>
	<polygon class="st2" points="565.3,198.2 567.7,194.1 559.1,190.6 556.6,193.6 	"/>
	<polygon class="st2" points="558.5,196.1 560.7,192.2 552.8,190.9 552.2,193.7 	"/>
	<polygon class="st2" points="565.4,188.4 558.8,187.2 558.1,192 565.8,190.1 	"/>
	<polygon class="st2" points="554.3,193.4 554.3,196.1 551,198 550.2,197.2 550.1,193.7 551.1,191.3 	"/>
	<polygon class="st2" points="562,196 560.1,198.1 556.8,195.7 560.3,193 	"/>
	<polygon class="st2" points="557.3,198.7 552.7,197.8 554.3,195.3 557.7,196.1 559.3,198.1 	"/>
	<polygon class="st2" points="563.7,198.5 560.6,198.5 560.2,195.4 562.8,196 	"/>
	<polygon class="st2" points="559.8,189.9 554.8,192.9 554.3,189.3 556.3,186.4 559.6,189.8 	"/>
	<g>
		<polygon class="st2" points="521.5,190.8 521.5,195.7 523.9,195.7 		"/>
		<polygon class="st2" points="521.5,200.1 521.5,194 527.2,194.4 527.9,199.9 		"/>
		<polygon class="st2" points="525.7,195.4 528.7,192 534.4,196.8 531.8,198.5 529.2,199.1 		"/>
		<polygon class="st2" points="523.3,192.9 524.1,188.1 528.5,191.3 527.8,196.4 523.7,193.3 		"/>
		<polygon class="st2" points="529.3,189.3 533,187.2 540.5,192.5 537.9,196 532.6,194.8 		"/>
		<polygon class="st2" points="538.4,186.8 536,190.9 544.6,194.4 547.1,191.5 		"/>
		<polygon class="st2" points="545.2,188.9 543,192.9 550.9,194.1 551.5,191.3 		"/>
		<polygon class="st2" points="538.3,196.7 544.9,197.8 545.6,193 538,195 		"/>
		<polygon class="st2" points="549.5,191.6 549.5,188.9 552.7,187.1 553.5,187.8 553.6,191.3 552.6,193.7 		"/>
		<polygon class="st2" points="546.5,186.4 551,187.2 549.5,189.8 546,188.9 544.5,186.9 		"/>
		<polygon class="st2" points="540,186.5 543.1,186.5 543.5,189.6 540.9,189.1 		"/>
		<polygon class="st2" points="543.9,195.1 548.9,192.2 549.4,195.7 547.5,198.7 544.1,195.3 		"/>
	</g>
	<polygon class="st2" points="568.9,190.8 568.9,195.7 571.3,195.7 	"/>
	<polygon class="st2" points="573.2,195.4 576.2,191.9 581.8,196.8 579.3,198.4 576.7,198.9 	"/>
	<polygon class="st2" points="570.7,192.7 571.5,188.1 576,191.2 575.2,196.3 571.1,193.3 	"/>
	<polygon class="st2" points="576.8,189.3 580.5,187.1 587.9,192.5 585.3,196 580.1,194.7 	"/>
	<polygon class="st2" points="585.8,186.8 583.5,190.9 592.1,194.4 594.6,191.5 	"/>
	<polygon class="st2" points="593.1,187.2 590.9,191.2 598.8,192.5 599.4,189.6 	"/>
	<polygon class="st2" points="589.2,189.1 591.1,186.9 594.3,189.3 590.8,191.9 	"/>
	<polygon class="st2" points="595.5,191.9 598.6,191.9 599,195.1 596.3,194.6 	"/>
	<polygon class="st2" points="587.4,193.6 590.9,190.8 598.7,194.8 596.4,198.7 591.1,198.4 	"/>
</g>
<g>
	<g>
		<polygon class="st2" points="599.6,192.6 599.6,197.5 602,197.5 		"/>
		<polygon class="st2" points="599.6,201.9 599.6,195.7 605.3,196.3 606,201.8 		"/>
		<polygon class="st2" points="603.8,197.1 606.9,193.7 612.5,198.5 610,200.2 607.3,200.8 		"/>
		<polygon class="st2" points="601.4,194.6 602.2,189.9 606.6,193 605.9,198.1 601.8,195 		"/>
		<polygon class="st2" points="607.4,191.2 611.2,188.9 618.6,194.1 616,197.7 610.7,196.5 		"/>
		<polygon class="st2" points="616.5,188.5 614.2,192.7 622.7,196.3 625.2,193.3 		"/>
		<polygon class="st2" points="623.3,190.6 621.2,194.6 629,195.8 629.7,193 		"/>
		<polygon class="st2" points="616.4,198.4 623,199.5 623.7,194.8 616.1,196.7 		"/>
		<polygon class="st2" points="627.6,193.4 627.6,190.6 630.8,188.8 631.7,189.5 631.7,193 630.7,195.6 		"/>
		<polygon class="st2" points="619.8,190.8 621.7,188.6 625,191.2 621.5,193.7 		"/>
		<polygon class="st2" points="624.6,188.1 629.2,188.9 627.6,191.5 624.2,190.6 622.6,188.6 		"/>
		<polygon class="st2" points="618.2,188.2 621.2,188.2 621.7,191.3 619,190.8 		"/>
		<polygon class="st2" points="622,196.8 627,194 627.5,197.4 625.6,200.3 622.3,197.1 		"/>
		<g>
			<polygon class="st2" points="660.4,196 660.4,191 657.9,191 			"/>
			<polygon class="st2" points="660.4,186.7 660.4,192.7 654.6,192.3 653.9,186.8 			"/>
			<polygon class="st2" points="656.1,191.3 653.1,194.8 647.4,189.9 650,188.4 652.6,187.8 			"/>
			<polygon class="st2" points="658.6,194 657.7,198.7 653.3,195.6 654.1,190.5 658.2,193.4 			"/>
			<polygon class="st2" points="652.5,197.4 648.8,199.6 641.4,194.3 643.9,190.8 649.2,192 			"/>
			<polygon class="st2" points="643.4,199.9 645.8,195.8 637.2,192.3 634.7,195.3 			"/>
			<polygon class="st2" points="636.6,197.8 638.8,194 630.9,192.7 630.3,195.6 			"/>
			<polygon class="st2" points="643.5,190.1 636.9,189.1 636.2,193.7 643.9,191.9 			"/>
			<polygon class="st2" points="632.4,195.1 632.4,197.8 629.1,199.8 628.3,199.1 628.2,195.6 629.2,193 			"/>
			<polygon class="st2" points="635.4,200.5 630.8,199.6 632.4,197 635.8,197.8 637.4,199.8 			"/>
			<polygon class="st2" points="641.8,200.3 638.7,200.3 638.3,197.1 640.9,197.7 			"/>
			<polygon class="st2" points="637.9,191.6 632.9,194.6 632.4,191.2 634.4,188.1 637.7,191.5 			"/>
		</g>
	</g>
	<g>
		<polygon class="st2" points="719.2,196 719.2,191 716.8,191 		"/>
		<polygon class="st2" points="719.2,186.7 719.2,192.7 713.4,192.3 712.8,186.8 		"/>
		<polygon class="st2" points="714.9,191.3 711.9,194.8 706.3,189.9 708.8,188.4 711.4,187.8 		"/>
		<polygon class="st2" points="717.4,194 716.6,198.7 712.2,195.6 712.9,190.5 717,193.4 		"/>
		<polygon class="st2" points="711.4,197.4 707.6,199.6 700.2,194.3 702.8,190.8 708,192 		"/>
		<polygon class="st2" points="702.3,199.9 704.6,195.8 696,192.3 693.5,195.3 		"/>
		<polygon class="st2" points="695.4,197.8 697.6,194 689.8,192.7 689.1,195.6 		"/>
		<polygon class="st2" points="702.4,190.1 695.8,189.1 695,193.7 702.7,191.9 		"/>
		<polygon class="st2" points="691.2,195.1 691.2,197.8 687.9,199.8 687.1,199.1 687,195.6 688,193 		"/>
		<polygon class="st2" points="698.9,197.7 697,199.8 693.8,197.4 697.3,194.8 		"/>
		<polygon class="st2" points="694.2,200.5 689.6,199.6 691.2,197 694.6,197.8 696.2,199.8 		"/>
		<polygon class="st2" points="700.6,200.3 697.5,200.3 697.1,197.1 699.8,197.7 		"/>
		<polygon class="st2" points="696.8,191.6 691.8,194.6 691.3,191.2 693.2,188.1 696.5,191.5 		"/>
		<g>
			<polygon class="st2" points="658.4,192.6 658.4,197.5 660.8,197.5 			"/>
			<polygon class="st2" points="658.4,201.9 658.4,195.7 664.2,196.3 664.8,201.8 			"/>
			<polygon class="st2" points="662.7,197.1 665.7,193.7 671.3,198.5 668.8,200.2 666.2,200.8 			"/>
			<polygon class="st2" points="660.2,194.6 661,189.9 665.4,193 664.7,198.1 660.6,195 			"/>
			<polygon class="st2" points="666.2,191.2 670,188.9 677.4,194.1 674.8,197.7 669.6,196.5 			"/>
			<polygon class="st2" points="675.3,188.5 673,192.7 681.6,196.3 684.1,193.3 			"/>
			<polygon class="st2" points="682.2,190.6 680,194.6 687.8,195.8 688.5,193 			"/>
			<polygon class="st2" points="675.2,198.4 681.8,199.5 682.6,194.8 674.9,196.7 			"/>
			<polygon class="st2" points="686.4,193.4 686.4,190.6 689.7,188.8 690.5,189.5 690.6,193 689.6,195.6 			"/>
			<polygon class="st2" points="683.4,188.1 688,188.9 686.4,191.5 683,190.6 681.4,188.6 			"/>
			<polygon class="st2" points="677,188.2 680.1,188.2 680.5,191.3 677.8,190.8 			"/>
			<polygon class="st2" points="680.8,196.8 685.8,194 686.3,197.4 684.4,200.3 681.1,197.1 			"/>
		</g>
	</g>
	<g>
		<polygon class="st2" points="778,195 778,190.1 775.6,190.1 		"/>
		<polygon class="st2" points="778,185.7 778,191.9 772.3,191.3 771.6,185.8 		"/>
		<polygon class="st2" points="773.8,190.5 770.8,193.9 765.1,189.1 767.7,187.4 770.3,186.8 		"/>
		<polygon class="st2" points="776.2,193 775.4,197.7 771,194.6 771.7,189.5 775.8,192.6 		"/>
		<polygon class="st2" points="770.2,196.4 766.4,198.7 759,193.4 761.6,189.9 766.9,191 		"/>
		<polygon class="st2" points="761.1,199.1 763.4,194.8 754.9,191.3 752.4,194.3 		"/>
		<polygon class="st2" points="754.3,197 756.4,193 748.6,191.7 747.9,194.6 		"/>
		<polygon class="st2" points="761.2,189.2 754.6,188.1 753.9,192.7 761.5,190.9 		"/>
		<polygon class="st2" points="750,194.1 750,197 746.8,198.8 745.9,198.1 745.9,194.6 746.9,192 		"/>
		<polygon class="st2" points="757.8,196.8 755.9,198.9 752.6,196.4 756.1,193.9 		"/>
		<polygon class="st2" points="753,199.5 748.4,198.7 750,196.1 753.4,197 755,198.9 		"/>
		<polygon class="st2" points="759.4,199.4 756.4,199.4 755.9,196.3 758.6,196.8 		"/>
		<polygon class="st2" points="755.6,190.8 750.6,193.6 750.1,190.2 752,187.2 755.3,190.5 		"/>
		<g>
			<polygon class="st2" points="717.2,191.6 717.2,196.5 719.7,196.5 			"/>
			<polygon class="st2" points="717.2,200.9 717.2,194.8 723,195.3 723.7,200.8 			"/>
			<polygon class="st2" points="721.5,196.3 724.5,192.7 730.2,197.7 727.6,199.2 725,199.8 			"/>
			<polygon class="st2" points="719,193.6 719.9,188.9 724.3,192 723.5,197.1 719.4,194.1 			"/>
			<polygon class="st2" points="725.1,190.2 728.8,187.9 736.2,193.3 733.7,196.8 728.4,195.6 			"/>
			<polygon class="st2" points="734.2,187.7 731.8,191.7 740.4,195.3 742.9,192.3 			"/>
			<polygon class="st2" points="741,189.8 738.8,193.6 746.7,194.8 747.3,192 			"/>
			<polygon class="st2" points="734.1,197.5 740.7,198.5 741.4,193.9 733.7,195.7 			"/>
			<polygon class="st2" points="745.2,192.5 745.2,189.8 748.5,187.8 749.3,188.5 749.4,192 748.4,194.6 			"/>
			<polygon class="st2" points="742.2,187.1 746.8,187.9 745.2,190.6 741.8,189.8 740.2,187.8 			"/>
			<polygon class="st2" points="735.8,187.2 738.9,187.2 739.3,190.5 736.7,189.9 			"/>
			<polygon class="st2" points="739.7,196 744.7,193 745.2,196.5 743.2,199.5 739.9,196.1 			"/>
		</g>
	</g>
	<g>
		<polygon class="st2" points="775.9,191.6 775.9,196.5 778.4,196.5 		"/>
		<polygon class="st2" points="775.9,200.9 775.9,194.8 781.7,195.3 782.4,200.8 		"/>
		<polygon class="st2" points="780.2,196.3 783.2,192.7 788.9,197.7 786.3,199.2 783.7,199.8 		"/>
		<polygon class="st2" points="777.7,193.6 778.6,188.9 783,192 782.2,197.1 778.2,194.1 		"/>
		<polygon class="st2" points="783.8,190.2 787.5,187.9 794.9,193.3 792.4,196.8 787.1,195.6 		"/>
		<polygon class="st2" points="792.9,187.7 790.5,191.7 799.1,195.3 801.6,192.3 		"/>
		<polygon class="st2" points="799.7,189.8 797.5,193.6 805.4,194.8 806,192 		"/>
		<polygon class="st2" points="792.8,197.5 799.4,198.5 800.1,193.9 792.4,195.7 		"/>
		<polygon class="st2" points="803.9,192.5 803.9,189.8 807.2,187.8 808,188.5 808.1,192 807.1,194.6 		"/>
		<polygon class="st2" points="796.2,189.9 798.1,187.8 801.4,190.2 797.9,192.7 		"/>
		<polygon class="st2" points="800.9,187.1 805.5,187.9 803.9,190.6 800.5,189.8 798.9,187.8 		"/>
		<polygon class="st2" points="794.5,187.2 797.6,187.2 798,190.5 795.4,189.9 		"/>
		<polygon class="st2" points="798.4,196 803.4,193 803.9,196.5 801.9,199.5 798.6,196.1 		"/>
		<g>
			<polygon class="st2" points="836.7,195 836.7,190.1 834.3,190.1 			"/>
			<polygon class="st2" points="836.7,185.7 836.7,191.9 831,191.3 830.3,185.8 			"/>
			<polygon class="st2" points="832.5,190.5 829.5,193.9 823.8,189.1 826.4,187.4 829,186.8 			"/>
			<polygon class="st2" points="834.9,193 834.1,197.7 829.7,194.6 830.4,189.5 834.5,192.6 			"/>
			<polygon class="st2" points="828.9,196.4 825.2,198.7 817.7,193.4 820.3,189.9 825.6,191 			"/>
			<polygon class="st2" points="819.8,199.1 822.2,194.8 813.6,191.3 811.1,194.3 			"/>
			<polygon class="st2" points="813,197 815.2,193 807.3,191.7 806.7,194.6 			"/>
			<polygon class="st2" points="819.9,189.2 813.3,188.1 812.6,192.7 820.2,190.9 			"/>
			<polygon class="st2" points="808.7,194.1 808.7,197 805.5,198.8 804.7,198.1 804.6,194.6 805.6,192 			"/>
			<polygon class="st2" points="811.7,199.5 807.2,198.7 808.7,196.1 812.2,197 813.7,198.9 			"/>
			<polygon class="st2" points="818.2,199.4 815.1,199.4 814.7,196.3 817.3,196.8 			"/>
			<polygon class="st2" points="814.3,190.8 809.3,193.6 808.8,190.2 810.7,187.2 814.1,190.5 			"/>
		</g>
	</g>
	<g>
		<polygon class="st2" points="895.6,195 895.6,190.1 893.2,190.1 		"/>
		<polygon class="st2" points="895.6,185.7 895.6,191.9 889.8,191.3 889.2,185.8 		"/>
		<polygon class="st2" points="891.3,190.5 888.3,193.9 882.7,189.1 885.2,187.4 887.8,186.8 		"/>
		<polygon class="st2" points="893.8,193 892.9,197.7 888.5,194.6 889.3,189.5 893.4,192.6 		"/>
		<polygon class="st2" points="887.7,196.4 884,198.7 876.6,193.4 879.2,189.9 884.4,191 		"/>
		<polygon class="st2" points="878.7,199.1 881,194.8 872.4,191.3 869.9,194.3 		"/>
		<polygon class="st2" points="871.8,197 874,193 866.2,191.7 865.5,194.6 		"/>
		<polygon class="st2" points="878.7,189.2 872.2,188.1 871.4,192.7 879.1,190.9 		"/>
		<polygon class="st2" points="867.6,194.1 867.6,197 864.3,198.8 863.5,198.1 863.4,194.6 864.4,192 		"/>
		<polygon class="st2" points="875.3,196.8 873.4,198.9 870.2,196.4 873.7,193.9 		"/>
		<polygon class="st2" points="870.6,199.5 866,198.7 867.6,196.1 871,197 872.6,198.9 		"/>
		<polygon class="st2" points="877,199.4 873.9,199.4 873.5,196.3 876.2,196.8 		"/>
		<polygon class="st2" points="873.1,190.8 868.1,193.6 867.6,190.2 869.6,187.2 872.9,190.5 		"/>
		<g>
			<polygon class="st2" points="834.8,191.6 834.8,196.5 837.2,196.5 			"/>
			<polygon class="st2" points="834.8,200.9 834.8,194.8 840.5,195.3 841.2,200.8 			"/>
			<polygon class="st2" points="839,196.3 842.1,192.7 847.7,197.7 845.2,199.2 842.6,199.8 			"/>
			<polygon class="st2" points="836.6,193.6 837.4,188.9 841.8,192 841.1,197.1 837,194.1 			"/>
			<polygon class="st2" points="842.6,190.2 846.4,187.9 853.8,193.3 851.2,196.8 845.9,195.6 			"/>
			<polygon class="st2" points="851.7,187.7 849.4,191.7 857.9,195.3 860.4,192.3 			"/>
			<polygon class="st2" points="858.5,189.8 856.4,193.6 864.2,194.8 864.9,192 			"/>
			<polygon class="st2" points="851.6,197.5 858.2,198.5 858.9,193.9 851.3,195.7 			"/>
			<polygon class="st2" points="862.8,192.5 862.8,189.8 866,187.8 866.9,188.5 866.9,192 865.9,194.6 			"/>
			<polygon class="st2" points="859.8,187.1 864.4,187.9 862.8,190.6 859.4,189.8 857.8,187.8 			"/>
			<polygon class="st2" points="853.4,187.2 856.4,187.2 856.9,190.5 854.2,189.9 			"/>
			<polygon class="st2" points="857.2,196 862.2,193 862.7,196.5 860.8,199.5 857.5,196.1 			"/>
		</g>
	</g>
	<g>
		<polygon class="st2" points="954.4,194.1 954.4,189.2 952,189.2 		"/>
		<polygon class="st2" points="954.4,184.8 954.4,190.9 948.7,190.5 948,185 		"/>
		<polygon class="st2" points="950.2,189.5 947.1,192.9 941.5,188.1 944,186.4 946.6,185.8 		"/>
		<polygon class="st2" points="952.6,192 951.8,196.8 947.4,193.6 948.1,188.5 952.2,191.6 		"/>
		<polygon class="st2" points="946.6,195.6 942.8,197.7 935.4,192.5 938,188.9 943.2,190.1 		"/>
		<polygon class="st2" points="937.5,198.1 939.8,194 931.2,190.5 928.7,193.4 		"/>
		<polygon class="st2" points="930.7,196 932.8,192 925,190.8 924.3,193.6 		"/>
		<polygon class="st2" points="937.6,188.2 931,187.1 930.2,191.9 937.9,189.9 		"/>
		<polygon class="st2" points="926.4,193.3 926.4,196 923.2,197.8 922.3,197.1 922.2,193.6 923.2,191.2 		"/>
		<polygon class="st2" points="934.2,195.8 932.2,198 929,195.6 932.5,192.9 		"/>
		<polygon class="st2" points="929.4,198.5 924.8,197.7 926.4,195.1 929.8,196 931.4,198 		"/>
		<polygon class="st2" points="935.8,198.4 932.7,198.4 932.3,195.3 935,195.8 		"/>
		<polygon class="st2" points="932,189.8 927,192.7 926.5,189.2 928.4,186.2 931.7,189.6 		"/>
		<g>
			<polygon class="st2" points="893.6,190.6 893.6,195.6 896,195.6 			"/>
			<polygon class="st2" points="893.6,199.9 893.6,193.9 899.4,194.3 900,199.8 			"/>
			<polygon class="st2" points="897.9,195.3 900.9,191.9 906.5,196.7 904,198.4 901.4,198.9 			"/>
			<polygon class="st2" points="895.4,192.7 896.2,187.9 900.7,191.2 899.9,196.3 895.8,193.2 			"/>
			<polygon class="st2" points="901.4,189.2 905.2,187.1 912.6,192.3 910,195.8 904.8,194.7 			"/>
			<polygon class="st2" points="910.5,186.7 908.2,190.8 916.8,194.3 919.3,191.3 			"/>
			<polygon class="st2" points="917.4,188.8 915.2,192.7 923,194 923.7,191.2 			"/>
			<polygon class="st2" points="910.4,196.5 917,197.7 917.8,192.9 910.1,194.8 			"/>
			<polygon class="st2" points="921.6,191.5 921.6,188.8 924.9,186.9 925.7,187.7 925.8,191.2 924.8,193.6 			"/>
			<polygon class="st2" points="918.6,186.2 923.2,187.1 921.6,189.6 918.2,188.8 916.6,186.8 			"/>
			<polygon class="st2" points="912.2,186.4 915.3,186.4 915.7,189.5 913,188.9 			"/>
			<polygon class="st2" points="916.1,195 921.1,192 921.6,195.6 919.6,198.5 916.3,195.1 			"/>
		</g>
	</g>
	<g>
		<polygon class="st2" points="949.3,189.9 949.3,194.8 951.7,194.8 		"/>
		<polygon class="st2" points="949.3,199.1 949.3,193 955.1,193.4 955.7,199.1 		"/>
		<polygon class="st2" points="953.6,194.4 956.6,191 962.2,195.8 959.7,197.5 957.1,198.1 		"/>
		<polygon class="st2" points="951.1,191.9 951.9,187.1 956.4,190.3 955.6,195.4 951.5,192.3 		"/>
		<polygon class="st2" points="957.2,188.5 960.9,186.2 968.3,191.5 965.7,195 960.5,193.9 		"/>
		<polygon class="st2" points="966.2,185.8 963.9,189.9 972.5,193.4 975,190.6 		"/>
		<polygon class="st2" points="973.1,187.9 970.9,191.9 978.7,193.2 979.4,190.3 		"/>
		<polygon class="st2" points="966.2,195.7 972.7,196.8 973.5,192 965.8,194 		"/>
		<polygon class="st2" points="977.3,190.6 977.3,187.9 980.6,186.1 981.4,186.8 981.5,190.3 980.5,192.7 		"/>
		<polygon class="st2" points="969.6,188.1 971.5,186 974.7,188.5 971.2,191 		"/>
		<polygon class="st2" points="974.3,185.4 978.9,186.2 977.3,188.8 973.9,187.9 972.3,186 		"/>
		<polygon class="st2" points="967.9,185.5 971,185.5 971.4,188.6 968.7,188.1 		"/>
		<polygon class="st2" points="971.8,194.1 976.8,191.3 977.3,194.7 975.3,197.7 972,194.3 		"/>
		<g>
			<polygon class="st2" points="1010.1,193.3 1010.1,188.4 1007.7,188.4 			"/>
			<polygon class="st2" points="1010.1,184 1010.1,190.1 1004.4,189.6 1003.7,184.1 			"/>
			<polygon class="st2" points="1005.9,188.6 1002.8,192 997.2,187.2 999.7,185.7 1002.3,185 			"/>
			<polygon class="st2" points="1008.3,191.3 1007.5,196 1003.1,192.7 1003.8,187.8 1007.9,190.8 			"/>
			<polygon class="st2" points="1002.3,194.7 998.5,197 991.1,191.6 993.7,188.1 998.9,189.2 			"/>
			<polygon class="st2" points="993.2,197.2 995.5,193.2 986.9,189.6 984.4,192.6 			"/>
			<polygon class="st2" points="986.4,195.1 988.5,191.3 980.7,189.9 980,192.7 			"/>
			<polygon class="st2" points="993.3,187.4 986.7,186.4 985.9,191 993.6,189.2 			"/>
			<polygon class="st2" points="982.1,192.5 982.1,195.1 978.9,197 978,196.3 977.9,192.7 978.9,190.3 			"/>
			<polygon class="st2" points="985.1,197.7 980.5,197 982.1,194.3 985.5,195.1 987.1,197.1 			"/>
			<polygon class="st2" points="991.5,197.7 988.4,197.7 988,194.4 990.7,195 			"/>
			<polygon class="st2" points="987.7,188.9 982.7,191.9 982.2,188.4 984.1,185.4 987.4,188.8 			"/>
		</g>
	</g>
	<g>
		<polygon class="st2" points="1068.9,193.3 1068.9,188.4 1066.5,188.4 		"/>
		<polygon class="st2" points="1068.9,184 1068.9,190.1 1063.2,189.6 1062.5,184.1 		"/>
		<polygon class="st2" points="1064.7,188.6 1061.7,192 1056,187.2 1058.6,185.7 1061.2,185 		"/>
		<polygon class="st2" points="1067.2,191.3 1066.3,196 1061.9,192.7 1062.7,187.8 1066.7,190.8 		"/>
		<polygon class="st2" points="1061.1,194.7 1057.4,197 1049.9,191.6 1052.5,188.1 1057.8,189.2 		"/>
		<polygon class="st2" points="1052,197.2 1054.4,193.2 1045.8,189.6 1043.3,192.6 		"/>
		<polygon class="st2" points="1045.2,195.1 1047.4,191.3 1039.5,189.9 1038.9,192.7 		"/>
		<polygon class="st2" points="1052.1,187.4 1045.5,186.4 1044.8,191 1052.4,189.2 		"/>
		<polygon class="st2" points="1040.9,192.5 1040.9,195.1 1037.7,197 1036.9,196.3 1036.8,192.7 1037.8,190.3 		"/>
		<polygon class="st2" points="1048.7,195 1046.8,197.1 1043.5,194.7 1047,192 		"/>
		<polygon class="st2" points="1043.9,197.7 1039.4,197 1040.9,194.3 1044.4,195.1 1045.9,197.1 		"/>
		<polygon class="st2" points="1050.4,197.7 1047.3,197.7 1046.9,194.4 1049.5,195 		"/>
		<polygon class="st2" points="1046.5,188.9 1041.5,191.9 1041,188.4 1042.9,185.4 1046.3,188.8 		"/>
		<g>
			<polygon class="st2" points="1008.2,189.9 1008.2,194.8 1010.6,194.8 			"/>
			<polygon class="st2" points="1008.2,199.1 1008.2,193 1013.9,193.4 1014.6,199.1 			"/>
			<polygon class="st2" points="1012.4,194.4 1015.4,191 1021.1,195.8 1018.5,197.5 1015.9,198.1 			"/>
			<polygon class="st2" points="1009.9,191.9 1010.8,187.1 1015.2,190.3 1014.4,195.4 1010.4,192.3 			"/>
			<polygon class="st2" points="1016,188.5 1019.7,186.2 1027.2,191.5 1024.6,195 1019.3,193.9 			"/>
			<polygon class="st2" points="1025.1,185.8 1022.7,189.9 1031.3,193.4 1033.8,190.6 			"/>
			<polygon class="st2" points="1031.9,187.9 1029.7,191.9 1037.6,193.2 1038.2,190.3 			"/>
			<polygon class="st2" points="1025,195.7 1031.6,196.8 1032.3,192 1024.7,194 			"/>
			<polygon class="st2" points="1036.2,190.6 1036.2,187.9 1039.4,186.1 1040.2,186.8 1040.3,190.3 1039.3,192.7 			"/>
			<polygon class="st2" points="1033.2,185.4 1037.7,186.2 1036.2,188.8 1032.7,187.9 1031.2,186 			"/>
			<polygon class="st2" points="1026.7,185.5 1029.8,185.5 1030.2,188.6 1027.6,188.1 			"/>
			<polygon class="st2" points="1030.6,194.1 1035.6,191.3 1036.1,194.7 1034.2,197.7 1030.8,194.3 			"/>
		</g>
	</g>
	<g>
		<polygon class="st2" points="1127.8,192.3 1127.8,187.4 1125.4,187.4 		"/>
		<polygon class="st2" points="1127.8,183 1127.8,189.2 1122,188.6 1121.4,183.1 		"/>
		<polygon class="st2" points="1123.5,187.8 1120.5,191.2 1114.9,186.4 1117.4,184.7 1120,184.1 		"/>
		<polygon class="st2" points="1126,190.3 1125.2,195 1120.7,191.9 1121.5,186.8 1125.6,189.9 		"/>
		<polygon class="st2" points="1119.9,193.7 1116.2,196 1108.8,190.6 1111.4,187.1 1116.6,188.4 		"/>
		<polygon class="st2" points="1110.9,196.3 1113.2,192.2 1104.6,188.6 1102.1,191.6 		"/>
		<polygon class="st2" points="1104,194.1 1106.2,190.3 1098.4,189.1 1097.7,191.9 		"/>
		<polygon class="st2" points="1110.9,186.4 1104.4,185.4 1103.6,190.1 1111.3,188.2 		"/>
		<polygon class="st2" points="1099.8,191.5 1099.8,194.1 1096.5,196.1 1095.7,195.4 1095.6,191.9 1096.6,189.3 		"/>
		<polygon class="st2" points="1107.5,194.1 1105.6,196.3 1102.4,193.7 1105.9,191.2 		"/>
		<polygon class="st2" points="1102.8,196.8 1098.2,196 1099.8,193.4 1103.2,194.1 1104.8,196.3 		"/>
		<polygon class="st2" points="1109.2,196.7 1106.1,196.7 1105.7,193.4 1108.4,194.1 		"/>
		<polygon class="st2" points="1105.3,188.1 1100.3,190.9 1099.8,187.5 1101.8,184.6 1105.1,187.8 		"/>
		<g>
			<polygon class="st2" points="1067,188.9 1067,193.9 1069.4,193.9 			"/>
			<polygon class="st2" points="1067,198.2 1067,192 1072.7,192.6 1073.4,198.1 			"/>
			<polygon class="st2" points="1071.2,193.4 1074.3,190.1 1079.9,194.8 1077.4,196.5 1074.8,197.1 			"/>
			<polygon class="st2" points="1068.8,190.9 1069.6,186.2 1074,189.3 1073.3,194.4 1069.2,191.3 			"/>
			<polygon class="st2" points="1074.8,187.5 1078.6,185.3 1086,190.6 1083.4,194.1 1078.2,192.9 			"/>
			<polygon class="st2" points="1083.9,185 1081.6,189.1 1090.2,192.6 1092.7,189.6 			"/>
			<polygon class="st2" points="1090.7,187.1 1088.6,190.9 1096.4,192.2 1097.1,189.3 			"/>
			<polygon class="st2" points="1083.8,194.8 1090.4,195.8 1091.2,191.2 1083.5,193 			"/>
			<polygon class="st2" points="1095,189.8 1095,187.1 1098.2,185.1 1099.1,185.8 1099.2,189.3 1098.2,191.9 			"/>
			<polygon class="st2" points="1092,184.4 1096.6,185.3 1095,187.8 1091.6,187.1 1090,185 			"/>
			<polygon class="st2" points="1085.6,184.6 1088.7,184.6 1089.1,187.8 1086.4,187.1 			"/>
			<polygon class="st2" points="1089.4,193.3 1094.4,190.3 1094.9,193.7 1093,196.8 1089.7,193.4 			"/>
		</g>
	</g>
	<polygon class="st2" points="1181.8,194.3 1181.8,189.3 1179.4,189.3 	"/>
	<polygon class="st2" points="1181.8,185 1181.8,191 1176.1,190.6 1175.4,185.1 	"/>
	<polygon class="st2" points="1177.6,189.6 1174.5,193.2 1168.9,188.2 1171.4,186.7 1174,186.1 	"/>
	<polygon class="st2" points="1180,192.3 1179.2,197 1174.8,193.9 1175.5,188.8 1179.6,191.7 	"/>
	<polygon class="st2" points="1174,195.7 1170.2,198 1162.8,192.6 1165.4,189.1 1170.7,190.3 	"/>
	<polygon class="st2" points="1164.9,198.2 1167.2,194.1 1158.7,190.6 1156.2,193.6 	"/>
	<polygon class="st2" points="1158.1,196.1 1160.2,192.3 1152.4,191 1151.7,193.9 	"/>
	<polygon class="st2" points="1165,188.4 1158.4,187.4 1157.7,192 1165.3,190.2 	"/>
	<polygon class="st2" points="1153.8,193.4 1153.8,196.1 1150.6,198.1 1149.7,197.4 1149.7,193.9 1150.7,191.3 	"/>
	<polygon class="st2" points="1161.6,196 1159.7,198.1 1156.4,195.7 1159.9,193.2 	"/>
	<polygon class="st2" points="1156.8,198.8 1152.2,198 1153.8,195.3 1157.2,196.1 1158.8,198.1 	"/>
	<polygon class="st2" points="1163.2,198.7 1160.2,198.7 1159.7,195.4 1162.4,196 	"/>
	<polygon class="st2" points="1159.4,189.9 1154.4,192.9 1153.9,189.5 1155.8,186.4 1159.1,189.8 	"/>
	<g>
		<polygon class="st2" points="1121,190.9 1121,195.8 1123.4,195.8 		"/>
		<polygon class="st2" points="1121,200.2 1121,194 1126.8,194.6 1127.4,200.1 		"/>
		<polygon class="st2" points="1125.3,195.4 1128.3,192 1133.9,196.8 1131.4,198.5 1128.8,199.1 		"/>
		<polygon class="st2" points="1122.8,192.9 1123.7,188.2 1128.1,191.3 1127.3,196.4 1123.2,193.3 		"/>
		<polygon class="st2" points="1128.9,189.5 1132.6,187.2 1140,192.5 1137.4,196 1132.2,194.8 		"/>
		<polygon class="st2" points="1137.9,186.8 1135.6,191 1144.2,194.6 1146.7,191.6 		"/>
		<polygon class="st2" points="1144.8,188.9 1142.6,192.9 1150.4,194.1 1151.1,191.3 		"/>
		<polygon class="st2" points="1137.9,196.7 1144.4,197.8 1145.2,193.2 1137.5,195 		"/>
		<polygon class="st2" points="1149,191.7 1149,188.9 1152.3,187.1 1153.1,187.8 1153.2,191.3 1152.2,193.9 		"/>
		<polygon class="st2" points="1146,186.4 1150.6,187.2 1149,189.8 1145.6,188.9 1144,186.9 		"/>
		<polygon class="st2" points="1139.6,186.5 1142.7,186.5 1143.1,189.6 1140.4,189.1 		"/>
		<polygon class="st2" points="1143.5,195.1 1148.5,192.3 1149,195.7 1147,198.7 1143.7,195.4 		"/>
	</g>
	<polygon class="st2" points="1168.5,190.8 1168.5,195.7 1170.9,195.7 	"/>
	<polygon class="st2" points="1172.7,195.4 1175.8,192 1181.4,196.8 1178.9,198.4 1176.3,199.1 	"/>
	<polygon class="st2" points="1170.3,192.7 1171.1,188.1 1175.5,191.3 1174.8,196.3 1170.7,193.3 	"/>
	<polygon class="st2" points="1176.3,189.3 1180.1,187.1 1187.5,192.5 1184.9,196 1179.7,194.8 	"/>
	<polygon class="st2" points="1185.4,186.8 1183.1,190.9 1191.7,194.4 1194.2,191.5 	"/>
	<polygon class="st2" points="1192.7,187.2 1190.5,191.2 1198.3,192.5 1199,189.6 	"/>
	<polygon class="st2" points="1188.7,189.1 1190.7,186.9 1193.9,189.3 1190.4,192 	"/>
	<polygon class="st2" points="1195.1,192 1198.2,192 1198.6,195.1 1195.9,194.6 	"/>
	<polygon class="st2" points="1186.9,193.6 1190.5,190.8 1198.3,194.8 1196,198.8 1190.7,198.4 	"/>
</g>
<rect x="0" y="166.8" class="st4" width="1.8" height="33.3"/>
<rect x="600.2" y="166.7" class="st4" width="1.8" height="33.3"/>
</svg>
