<?xml version="1.0" encoding="utf-8"?>
<!-- Generator: Adobe Illustrator 16.0.0, SVG Export Plug-In . SVG Version: 6.00 Build 0)  -->
<!DOCTYPE svg PUBLIC "-//W3C//DTD SVG 1.1//EN" "http://www.w3.org/Graphics/SVG/1.1/DTD/svg11.dtd">
<svg version="1.1" id="Layer_1" xmlns="http://www.w3.org/2000/svg" xmlns:xlink="http://www.w3.org/1999/xlink" x="0px" y="0px"
	 width="628.811px" height="220px" viewBox="0 0 628.811 220" enable-background="new 0 0 628.811 220" xml:space="preserve">
<rect x="74" y="69" fill="#8F8774" width="406.001" height="112.5"/>
<rect x="159.9" y="155.4" fill="#754C29" width="5.6" height="21.3"/>
<rect x="269.8" y="155.4" fill="#754C29" width="5.101" height="21.3"/>
<rect x="338.6" y="155.2" fill="#754C29" width="5.2" height="21.5"/>
<rect x="448.4" y="155.2" fill="#754C29" width="5.102" height="21.5"/>
<rect x="478.1" y="66.2" fill="#775031" width="10" height="109.2"/>
<rect x="486.501" y="65.8" fill="#584124" width="5" height="109.2"/>
<path fill="#465D5D" d="M154.8,131.3h128c0,0,2.101-0.2,2.101,1.9c0,2.1,0,21.399,0,21.399H152.5c0,0,0-19,0-21.301
	C152.5,130.999,154.8,131.3,154.8,131.3z"/>
<path fill="#465D5D" d="M333.4,130.6h128.101c0,0,2.1-0.199,2.1,1.9s0,21.6,0,21.6h-132.6c0,0,0-19.199,0-21.5
	C331.001,130.4,333.4,130.6,333.4,130.6z"/>
<rect x="152.5" y="154.1" fill="#354A49" width="132.4" height="8.5"/>
<rect x="331.001" y="154.1" fill="#354A49" width="132.5" height="9.102"/>
<rect x="0" y="180" fill="#775031" width="626.601" height="40"/>
<rect x="0" y="174" fill="#937963" width="626.7" height="6"/>
<rect x="66.3" y="64.8" fill="#775031" width="10" height="109.2"/>
<rect x="61.5" y="64.8" fill="#584124" width="5" height="109.2"/>
<polygon fill="#72312E" points="34.3,55.7 516.301,55.7 267.5,32.5 "/>
<rect x="34.3" y="54.7" fill="#584124" width="482.001" height="19.3"/>
<g>
	<rect x="152.5" y="133.6" fill="#2F4342" width="132.3" height="2.2"/>
	<rect x="152.5" y="137" fill="#2F4342" width="132.5" height="2.2"/>
	<rect x="152.5" y="140.5" fill="#2F4342" width="132.4" height="2.2"/>
	<rect x="152.4" y="143.9" fill="#2F4342" width="132.5" height="2.199"/>
	<rect x="152.4" y="147.2" fill="#2F4342" width="132.399" height="2.2"/>
	<rect x="152.5" y="150.6" fill="#2F4342" width="132.4" height="2.2"/>
</g>
<rect x="331.001" y="133.3" fill="#2F4342" width="132.3" height="2.2"/>
<rect x="331.001" y="136.7" fill="#2F4342" width="132.5" height="2.2"/>
<rect x="331.001" y="140.2" fill="#2F4342" width="132.398" height="2.2"/>
<rect x="331.001" y="143.5" fill="#2F4342" width="132.5" height="2.2"/>
<rect x="331.001" y="146.9" fill="#2F4342" width="132.398" height="2.199"/>
<rect x="331.001" y="150.3" fill="#2F4342" width="132.398" height="2.2"/>
</svg>
