<?xml version="1.0" encoding="utf-8"?>
<!-- Generator: Adobe Illustrator 16.0.0, SVG Export Plug-In . SVG Version: 6.00 Build 0)  -->
<!DOCTYPE svg PUBLIC "-//W3C//DTD SVG 1.1//EN" "http://www.w3.org/Graphics/SVG/1.1/DTD/svg11.dtd">
<svg version="1.1" id="Layer_1" xmlns="http://www.w3.org/2000/svg" xmlns:xlink="http://www.w3.org/1999/xlink" x="0px" y="0px"
	 width="1175px" height="220px" viewBox="0 0 1175 220" enable-background="new 0 0 1175 220" xml:space="preserve">
<rect x="661.301" y="69" fill="#8F8774" width="406.001" height="112.5"/>
<rect x="747.198" y="155.4" fill="#754C29" width="5.603" height="21.3"/>
<rect x="857.101" y="155.4" fill="#754C29" width="5.101" height="21.3"/>
<rect x="925.901" y="155.2" fill="#754C29" width="5.2" height="21.5"/>
<rect x="1035.698" y="155.2" fill="#754C29" width="5.104" height="21.5"/>
<rect x="1065.401" y="66.2" fill="#747678" width="10" height="109.2"/>
<rect x="1073.802" y="65.8" fill="#5D5E61" width="5" height="109.2"/>
<path fill="#465D5D" d="M742.101,131.3h128c0,0,2.101-0.2,2.101,1.9c0,2.1,0,21.399,0,21.399H739.802c0,0,0-19,0-21.304
	C739.801,130.999,742.101,131.3,742.101,131.3z"/>
<path fill="#465D5D" d="M920.698,130.6h128.103c0,0,2.101-0.199,2.101,1.9s0,21.6,0,21.6H918.301c0,0,0-19.199,0-21.5
	C918.302,130.4,920.698,130.6,920.698,130.6z"/>
<rect x="739.801" y="154.1" fill="#354A49" width="132.397" height="8.5"/>
<rect x="918.302" y="154.1" fill="#354A49" width="132.5" height="9.104"/>
<rect x="560.301" y="180" fill="#5D5E61" width="626.601" height="40"/>
<rect x="560.301" y="174.188" fill="#747678" width="626.699" height="7.125"/>
<rect x="653.601" y="64.8" fill="#747678" width="10" height="109.2"/>
<rect x="648.801" y="64.8" fill="#5D5E61" width="5" height="109.2"/>
<polygon fill="#6E2405" points="621.601,55.7 1103.602,55.7 854.801,32.5 "/>
<rect x="621.601" y="54.7" fill="#71535C" width="482.001" height="19.3"/>
<g>
	<rect x="739.801" y="133.6" fill="#2F4342" width="132.3" height="2.2"/>
	<rect x="739.801" y="137" fill="#2F4342" width="132.5" height="2.2"/>
	<rect x="739.801" y="140.5" fill="#2F4342" width="132.397" height="2.2"/>
	<rect x="739.698" y="143.9" fill="#2F4342" width="132.5" height="2.199"/>
	<rect x="739.698" y="147.2" fill="#2F4342" width="132.399" height="2.2"/>
	<rect x="739.801" y="150.6" fill="#2F4342" width="132.397" height="2.2"/>
</g>
<rect x="918.302" y="133.3" fill="#2F4342" width="132.3" height="2.2"/>
<rect x="918.302" y="136.7" fill="#2F4342" width="132.5" height="2.2"/>
<rect x="918.302" y="140.2" fill="#2F4342" width="132.396" height="2.2"/>
<rect x="918.302" y="143.5" fill="#2F4342" width="132.5" height="2.2"/>
<rect x="918.302" y="146.9" fill="#2F4342" width="132.396" height="2.199"/>
<rect x="918.302" y="150.3" fill="#2F4342" width="132.396" height="2.2"/>
</svg>
