<?xml version="1.0" encoding="utf-8"?>
<!-- Generator: Adobe Illustrator 16.0.0, SVG Export Plug-In . SVG Version: 6.00 Build 0)  -->
<!DOCTYPE svg PUBLIC "-//W3C//DTD SVG 1.1//EN" "http://www.w3.org/Graphics/SVG/1.1/DTD/svg11.dtd">
<svg version="1.1" id="Layer_1" xmlns="http://www.w3.org/2000/svg" xmlns:xlink="http://www.w3.org/1999/xlink" x="0px" y="0px"
	 width="903px" height="190px" viewBox="0 0 903 190" enable-background="new 0 0 903 190" xml:space="preserve">
<g id="bagons">
	<g display="none">
		<g display="inline">
			<path fill="#FFFFFF" stroke="#000000" stroke-width="0.7273" stroke-miterlimit="10" d="M393.441,140.159
				c0,13.915-10.309,19.978-20.04,19.978c-10.894,0-19.294-7.462-19.294-19.354c0-12.596,8.816-19.979,19.958-19.979
				C385.628,120.803,393.441,128.65,393.441,140.159z M356.278,140.561c0,9.897,7.246,17.364,17.454,17.364
				c9.973,0,17.455-7.372,17.455-17.552c0-7.652-4.867-17.357-17.218-17.357C361.625,123.016,356.278,131.975,356.278,140.561z"/>
			
				<rect x="373.266" y="123.063" fill="#FFFFFF" stroke="#000000" stroke-width="0.5684" stroke-miterlimit="10" width="1.018" height="34.813"/>
			
				<rect x="373.263" y="123.057" transform="matrix(0.9396 -0.3424 0.3424 0.9396 -25.5025 136.453)" fill="#FFFFFF" stroke="#000000" stroke-width="0.5684" stroke-miterlimit="10" width="1.015" height="34.817"/>
			
				<rect x="373.246" y="123.081" transform="matrix(0.7655 -0.6435 0.6435 0.7655 -2.742 273.4557)" fill="#FFFFFF" stroke="#000000" stroke-width="0.5684" stroke-miterlimit="10" width="1.017" height="34.816"/>
			
				<rect x="373.282" y="123.091" transform="matrix(0.4986 -0.8668 0.8668 0.4986 65.6288 394.4531)" fill="#FFFFFF" stroke="#000000" stroke-width="0.5684" stroke-miterlimit="10" width="1.018" height="34.807"/>
			
				<rect x="373.269" y="123.093" transform="matrix(0.1728 -0.985 0.985 0.1728 170.8016 484.3773)" fill="#FFFFFF" stroke="#000000" stroke-width="0.5684" stroke-miterlimit="10" width="1.017" height="34.817"/>
			
				<rect x="373.267" y="123.065" transform="matrix(-0.1724 -0.985 0.985 -0.1724 299.8293 532.8611)" fill="#FFFFFF" stroke="#000000" stroke-width="0.5684" stroke-miterlimit="10" width="1.014" height="34.81"/>
			
				<rect x="373.263" y="123.089" transform="matrix(-0.501 -0.8654 0.8654 -0.501 439.4389 534.3607)" fill="#FFFFFF" stroke="#000000" stroke-width="0.5684" stroke-miterlimit="10" width="1.016" height="34.81"/>
			
				<rect x="373.265" y="123.061" transform="matrix(-0.7659 -0.6429 0.6429 -0.7659 569.7477 488.3651)" fill="#FFFFFF" stroke="#000000" stroke-width="0.5684" stroke-miterlimit="10" width="1.016" height="34.816"/>
			
				<rect x="373.275" y="123.044" transform="matrix(-0.9403 -0.3404 0.3404 -0.9403 677.447 399.7362)" fill="#FFFFFF" stroke="#000000" stroke-width="0.5684" stroke-miterlimit="10" width="1.016" height="34.814"/>
		</g>
		
			<circle display="inline" fill="#FFFFFF" stroke="#000000" stroke-width="0.5684" stroke-miterlimit="10" cx="373.808" cy="140.47" r="3.699"/>
	</g>
	<g display="none">
		<g display="inline">
			<path fill="#FFFFFF" stroke="#000000" stroke-width="0.7273" stroke-miterlimit="10" d="M476.441,139.826
				c0,13.915-10.309,19.979-20.04,19.979c-10.894,0-19.294-7.463-19.294-19.355c0-12.596,8.816-19.979,19.958-19.979
				C468.628,120.471,476.441,128.316,476.441,139.826z M439.278,140.229c0,9.896,7.246,17.363,17.454,17.363
				c9.973,0,17.455-7.371,17.455-17.552c0-7.651-4.867-17.358-17.218-17.358C444.625,122.682,439.278,131.643,439.278,140.229z"/>
			
				<rect x="456.266" y="122.73" fill="#FFFFFF" stroke="#000000" stroke-width="0.5684" stroke-miterlimit="10" width="1.018" height="34.813"/>
			
				<rect x="456.262" y="122.722" transform="matrix(0.9396 -0.3424 0.3424 0.9396 -20.3721 164.8483)" fill="#FFFFFF" stroke="#000000" stroke-width="0.5684" stroke-miterlimit="10" width="1.015" height="34.817"/>
			
				<rect x="456.259" y="122.694" transform="matrix(0.7659 -0.643 0.643 0.7659 16.8621 326.5113)" fill="#FFFFFF" stroke="#000000" stroke-width="0.5684" stroke-miterlimit="10" width="1.018" height="34.817"/>
			
				<rect x="456.266" y="122.731" transform="matrix(0.5006 -0.8657 0.8657 0.5006 106.8069 465.4111)" fill="#FFFFFF" stroke="#000000" stroke-width="0.5684" stroke-miterlimit="10" width="1.016" height="34.81"/>
			
				<rect x="456.266" y="122.73" transform="matrix(0.172 -0.9851 0.9851 0.172 240.1485 565.9926)" fill="#FFFFFF" stroke="#000000" stroke-width="0.5684" stroke-miterlimit="10" width="1.016" height="34.812"/>
			
				<rect x="456.265" y="122.729" transform="matrix(-0.1731 -0.9849 0.9849 -0.1731 397.8327 614.2722)" fill="#FFFFFF" stroke="#000000" stroke-width="0.5684" stroke-miterlimit="10" width="1.015" height="34.813"/>
			
				<rect x="456.265" y="122.761" transform="matrix(-0.501 -0.8654 0.8654 -0.501 564.3083 605.7028)" fill="#FFFFFF" stroke="#000000" stroke-width="0.5684" stroke-miterlimit="10" width="1.016" height="34.812"/>
			
				<rect x="456.25" y="122.741" transform="matrix(-0.7664 -0.6424 0.6424 -0.7664 716.7933 540.9613)" fill="#FFFFFF" stroke="#000000" stroke-width="0.5684" stroke-miterlimit="10" width="1.016" height="34.816"/>
			
				<rect x="456.255" y="122.75" transform="matrix(-0.94 -0.3412 0.3412 -0.94 838.2933 427.7524)" fill="#FFFFFF" stroke="#000000" stroke-width="0.5684" stroke-miterlimit="10" width="1.016" height="34.815"/>
		</g>
		
			<circle display="inline" fill="#FFFFFF" stroke="#000000" stroke-width="0.5684" stroke-miterlimit="10" cx="456.808" cy="140.137" r="3.699"/>
	</g>
	<g>
		<rect x="343.75" y="61" fill="#6D6E71" width="2.913" height="27"/>
		<rect x="484.75" y="60.834" fill="#6D6E71" width="2.913" height="27.166"/>
		<line fill="none" stroke="#6D6E71" stroke-width="1.5" stroke-miterlimit="10" x1="389.5" y1="88.167" x2="389.5" y2="60.917"/>
		<line fill="none" stroke="#6D6E71" stroke-width="1.5" stroke-miterlimit="10" x1="442.829" y1="87.833" x2="442.829" y2="61"/>
		<path fill="none" stroke="#6D6E71" stroke-width="1.5" stroke-miterlimit="10" d="M344.413,82.083c0,0,7.75,0,10.087,0
			c2.329,0,2.75,1.3,2.75,1.3v4.55"/>
		<path fill="none" stroke="#6D6E71" stroke-width="1.5" stroke-miterlimit="10" d="M389.538,82.234c0,0,7.75,0,10.087,0
			c2.329,0,2.75,1.299,2.75,1.299v4.551"/>
		<path fill="none" stroke="#6D6E71" stroke-width="1.5" stroke-miterlimit="10" d="M442.913,82.234c0,0,7.75,0,10.087,0
			c2.329,0,2.75,1.299,2.75,1.299v4.551"/>
		<path fill="none" stroke="#6D6E71" stroke-width="1.5" stroke-miterlimit="10" d="M389.625,82.233c0,0-7.75,0-10.084,0
			c-2.332,0-2.75,1.3-2.75,1.3v4.551"/>
		<path fill="none" stroke="#6D6E71" stroke-width="1.5" stroke-miterlimit="10" d="M443.125,82.233c0,0-7.75,0-10.084,0
			c-2.332,0-2.75,1.3-2.75,1.3v4.551"/>
		<path fill="none" stroke="#6D6E71" stroke-width="1.5" stroke-miterlimit="10" d="M487.375,82.159c0,0-7.75,0-10.084,0
			c-2.332,0-2.75,1.3-2.75,1.3v4.55"/>
		<polygon fill="#726658" points="492.109,136.719 480.125,136.719 480.125,134.387 492.75,134.387 492.75,136.719 		"/>
		<polygon fill="#726658" points="348.567,136.709 336.579,136.709 336.579,134.376 349.204,134.376 349.204,136.709 		"/>
		<rect x="346.329" y="128.333" fill="#414042" width="136" height="12.583"/>
		<rect x="341.663" y="125.042" fill="#A82633" width="147.837" height="4.625"/>
		<rect x="343.663" y="88" fill="#13722C" width="144.337" height="37.083"/>
		<path fill="#333334" d="M489.5,61.25H342V55c0,0,48.5-1.5,74.5-1.5s73,1.5,73,1.5V61.25z"/>
		<rect x="341.829" y="87.938" fill="#A82633" width="148.896" height="2.938"/>
		<rect x="403" y="87.917" fill="#C08329" width="26" height="41.708"/>
		<rect x="492.594" y="133.625" fill="#333334" width="1.531" height="4.219"/>
		<rect x="335.281" y="133.584" fill="#333334" width="1.548" height="3.958"/>
		<rect x="345.136" y="92" fill="#238937" width="27.376" height="15.479"/>
		<rect x="374.327" y="92" fill="#238937" width="27.252" height="15.479"/>
		<rect x="345.038" y="108.896" fill="#238937" width="27.38" height="14.729"/>
		<rect x="374.238" y="108.896" fill="#238937" width="27.251" height="14.729"/>
		<rect x="405.25" y="90.313" fill="#13722C" width="21.375" height="36.938"/>
		<rect x="419.5" y="101.536" fill="#6D6E71" width="5.25" height="1.78"/>
		<rect x="430.386" y="92" fill="#238937" width="27.376" height="15.479"/>
		<rect x="459.577" y="92" fill="#238937" width="27.252" height="15.479"/>
		<rect x="430.288" y="108.896" fill="#238937" width="27.38" height="14.729"/>
		<rect x="459.488" y="108.896" fill="#238937" width="27.251" height="14.729"/>
	</g>
	<g>
		<rect x="184.875" y="60.875" fill="#6D6E71" width="2.917" height="27"/>
		<rect x="325.875" y="60.709" fill="#6D6E71" width="2.913" height="27.166"/>
		
			<line fill="none" stroke="#6D6E71" stroke-width="1.5" stroke-miterlimit="10" x1="230.625" y1="88.041" x2="230.625" y2="60.792"/>
		
			<line fill="none" stroke="#6D6E71" stroke-width="1.5" stroke-miterlimit="10" x1="283.958" y1="87.709" x2="283.958" y2="60.875"/>
		<path fill="none" stroke="#6D6E71" stroke-width="1.5" stroke-miterlimit="10" d="M185.542,81.959c0,0,7.75,0,10.083,0
			s2.75,1.299,2.75,1.299v4.551"/>
		<path fill="none" stroke="#6D6E71" stroke-width="1.5" stroke-miterlimit="10" d="M230.667,82.109c0,0,7.75,0,10.083,0
			s2.75,1.299,2.75,1.299v4.551"/>
		<path fill="none" stroke="#6D6E71" stroke-width="1.5" stroke-miterlimit="10" d="M284.042,82.109c0,0,7.75,0,10.083,0
			s2.75,1.299,2.75,1.299v4.551"/>
		<path fill="none" stroke="#6D6E71" stroke-width="1.5" stroke-miterlimit="10" d="M230.75,82.108c0,0-7.75,0-10.083,0
			s-2.75,1.3-2.75,1.3v4.551"/>
		<path fill="none" stroke="#6D6E71" stroke-width="1.5" stroke-miterlimit="10" d="M284.25,82.108c0,0-7.75,0-10.083,0
			s-2.75,1.3-2.75,1.3v4.551"/>
		<path fill="none" stroke="#6D6E71" stroke-width="1.5" stroke-miterlimit="10" d="M328.5,82.033c0,0-7.75,0-10.084,0
			c-2.332,0-2.75,1.301-2.75,1.301v4.55"/>
		<polygon fill="#726658" points="333.234,136.594 321.25,136.594 321.25,134.262 333.875,134.262 333.875,136.594 		"/>
		<polygon fill="#726658" points="189.692,136.584 177.708,136.584 177.708,134.251 190.333,134.251 190.333,136.584 		"/>
		<rect x="187.458" y="128.208" fill="#414042" width="135.996" height="12.583"/>
		<rect x="182.792" y="124.917" fill="#A82633" width="147.833" height="4.625"/>
		<rect x="184.792" y="87.875" fill="#13722C" width="144.334" height="37.083"/>
		<path fill="#333334" d="M330.625,61.125h-147.5v-6.25c0,0,48.5-1.5,74.5-1.5s73,1.5,73,1.5V61.125z"/>
		<rect x="182.958" y="87.813" fill="#A82633" width="148.896" height="2.938"/>
		<rect x="244.125" y="87.791" fill="#C08329" width="26" height="41.709"/>
		<rect x="333.719" y="133.5" fill="#333334" width="1.531" height="4.219"/>
		<rect x="176.41" y="133.459" fill="#333334" width="1.548" height="3.958"/>
		<rect x="186.261" y="91.875" fill="#238937" width="27.376" height="15.479"/>
		<rect x="215.456" y="91.875" fill="#238937" width="27.252" height="15.479"/>
		<rect x="186.167" y="108.771" fill="#238937" width="27.376" height="14.729"/>
		<rect x="215.363" y="108.771" fill="#238937" width="27.251" height="14.729"/>
		<rect x="246.375" y="90.188" fill="#13722C" width="21.375" height="36.938"/>
		<rect x="260.625" y="101.411" fill="#6D6E71" width="5.25" height="1.78"/>
		<rect x="271.511" y="91.875" fill="#238937" width="27.376" height="15.479"/>
		<rect x="300.702" y="91.875" fill="#238937" width="27.252" height="15.479"/>
		<rect x="271.417" y="108.771" fill="#238937" width="27.376" height="14.729"/>
		<rect x="300.613" y="108.771" fill="#238937" width="27.251" height="14.729"/>
	</g>
	<g>
		<rect x="25.958" y="60.708" fill="#6D6E71" width="2.917" height="27"/>
		<rect x="166.958" y="60.542" fill="#6D6E71" width="2.917" height="27.166"/>
		<line fill="none" stroke="#6D6E71" stroke-width="1.5" stroke-miterlimit="10" x1="71.708" y1="87.874" x2="71.708" y2="60.625"/>
		
			<line fill="none" stroke="#6D6E71" stroke-width="1.5" stroke-miterlimit="10" x1="125.042" y1="87.542" x2="125.042" y2="60.708"/>
		<path fill="none" stroke="#6D6E71" stroke-width="1.5" stroke-miterlimit="10" d="M26.625,81.792c0,0,7.75,0,10.083,0
			s2.75,1.299,2.75,1.299v4.551"/>
		<path fill="none" stroke="#6D6E71" stroke-width="1.5" stroke-miterlimit="10" d="M71.75,81.942c0,0,7.75,0,10.083,0
			s2.75,1.299,2.75,1.299v4.551"/>
		<path fill="none" stroke="#6D6E71" stroke-width="1.5" stroke-miterlimit="10" d="M125.125,81.942c0,0,7.75,0,10.083,0
			s2.75,1.299,2.75,1.299v4.551"/>
		<path fill="none" stroke="#6D6E71" stroke-width="1.5" stroke-miterlimit="10" d="M71.833,81.941c0,0-7.75,0-10.083,0
			s-2.75,1.3-2.75,1.3v4.551"/>
		<path fill="none" stroke="#6D6E71" stroke-width="1.5" stroke-miterlimit="10" d="M125.333,81.941c0,0-7.75,0-10.083,0
			s-2.75,1.3-2.75,1.3v4.551"/>
		<path fill="none" stroke="#6D6E71" stroke-width="1.5" stroke-miterlimit="10" d="M169.583,81.866c0,0-7.75,0-10.083,0
			s-2.75,1.301-2.75,1.301v4.55"/>
		<polygon fill="#726658" points="174.317,136.428 162.333,136.428 162.333,134.094 174.959,134.094 174.959,136.428 		"/>
		<polygon fill="#726658" points="30.775,136.417 18.792,136.417 18.792,134.084 31.417,134.084 31.417,136.417 		"/>
		<rect x="28.542" y="128.041" fill="#414042" width="136" height="12.583"/>
		<rect x="23.875" y="124.75" fill="#A82633" width="147.833" height="4.625"/>
		<rect x="25.875" y="87.708" fill="#13722C" width="144.334" height="37.083"/>
		<path fill="#333334" d="M171.708,60.958h-147.5v-6.25c0,0,48.5-1.5,74.5-1.5s73,1.5,73,1.5V60.958z"/>
		<rect x="24.042" y="87.646" fill="#A82633" width="148.896" height="2.938"/>
		<rect x="85.208" y="87.624" fill="#C08329" width="26" height="41.709"/>
		<rect x="174.802" y="133.333" fill="#333334" width="1.531" height="4.22"/>
		<rect x="17.494" y="133.292" fill="#333334" width="1.548" height="3.958"/>
		<rect x="27.344" y="91.708" fill="#238937" width="27.376" height="15.479"/>
		<rect x="56.539" y="91.708" fill="#238937" width="27.252" height="15.479"/>
		<rect x="27.25" y="108.604" fill="#238937" width="27.376" height="14.729"/>
		<rect x="56.446" y="108.604" fill="#238937" width="27.251" height="14.729"/>
		<rect x="87.458" y="90.021" fill="#13722C" width="21.375" height="36.938"/>
		<rect x="101.708" y="101.244" fill="#6D6E71" width="5.25" height="1.781"/>
		<rect x="112.594" y="91.708" fill="#238937" width="27.376" height="15.479"/>
		<rect x="141.789" y="91.708" fill="#238937" width="27.252" height="15.479"/>
		<rect x="112.5" y="108.604" fill="#238937" width="27.376" height="14.729"/>
		<rect x="141.696" y="108.604" fill="#238937" width="27.251" height="14.729"/>
	</g>
</g>
<g id="voor">
	<g>
		<polygon fill="none" stroke="#6D6E71" stroke-width="1.5" stroke-miterlimit="10" points="644.98,88.758 702.354,88.758 
			700.139,88.774 700.17,122.693 702.354,122.662 644.98,122.662 646.867,122.693 646.867,88.758 		"/>
		
			<line fill="none" stroke="#6D6E71" stroke-width="1.5" stroke-miterlimit="10" x1="670.613" y1="88.628" x2="670.613" y2="122.792"/>
		
			<line fill="none" stroke="#6D6E71" stroke-width="1.5" stroke-miterlimit="10" x1="664.502" y1="88.759" x2="664.502" y2="122.792"/>
		
			<line fill="none" stroke="#6D6E71" stroke-width="1.5" stroke-miterlimit="10" x1="658.393" y1="88.759" x2="658.393" y2="122.531"/>
		
			<line fill="none" stroke="#6D6E71" stroke-width="1.5" stroke-miterlimit="10" x1="652.281" y1="88.759" x2="652.281" y2="122.792"/>
		
			<line fill="none" stroke="#6D6E71" stroke-width="1.5" stroke-miterlimit="10" x1="688.943" y1="88.497" x2="688.943" y2="122.662"/>
		
			<line fill="none" stroke="#6D6E71" stroke-width="1.5" stroke-miterlimit="10" x1="682.828" y1="88.628" x2="682.828" y2="122.662"/>
		
			<line fill="none" stroke="#6D6E71" stroke-width="1.5" stroke-miterlimit="10" x1="676.723" y1="88.628" x2="676.723" y2="122.4"/>
		
			<line fill="none" stroke="#6D6E71" stroke-width="1.5" stroke-miterlimit="10" x1="695.053" y1="88.497" x2="695.053" y2="122.531"/>
	</g>
	<path fill="none" stroke="#594A42" stroke-width="1.1684" stroke-miterlimit="10" d="M821.334,122.417
		c-46.5-5.833-52.365,6.886-112.334-30.292"/>
	
		<rect x="708.124" y="89.875" transform="matrix(0.9946 0.1042 -0.1042 0.9946 13.6385 -73.3572)" fill="#939598" width="1.124" height="7.875"/>
	<rect x="643.625" y="121.771" fill="#D31C2D" width="226.875" height="10.479"/>
	<rect x="518.329" y="120.334" fill="#A82633" width="39.505" height="4.563"/>
	<rect x="578.875" y="119.667" fill="#A82633" width="38.166" height="4.853"/>
	<line fill="none" x1="579.166" y1="123.834" x2="616.704" y2="123.834"/>
	<line fill="none" x1="519.125" y1="124.563" x2="557.625" y2="124.563"/>
	<path fill="#238937" d="M595.005,90.5h-85.907H503.5l3.106,8.75v45.25h120.81v-40.75l-11.125-0.129L595.005,90.5z M556.75,136.584
		h-37V122.25c0,0,0.396-1.666,1.666-1.666c1.27,0,32.813,0,33.668,0c1.354,0,1.666,1.499,1.666,1.499V136.584z M616.329,136.25h-37
		v-14.334c0,0,0.396-1.666,1.671-1.666c1.271,0,32.813,0,33.666,0c1.354,0,1.666,1.499,1.666,1.499L616.329,136.25L616.329,136.25z"
		/>
	<polygon fill="#A82633" points="531.898,130.458 525.704,124.63 549.5,124.63 542.73,130.458 	"/>
	<polygon fill="#A82633" points="592.932,129.793 587.166,124.209 609.323,124.209 603.021,129.793 	"/>
	<rect x="674" y="139.775" fill="#726658" width="147.5" height="1.781"/>
	<polygon fill="#726658" points="821.5,140.158 870.454,134.521 870.438,136.245 821.5,141.75 	"/>
	<rect x="817.495" y="137.73" fill="#333334" width="5.875" height="5.625"/>
	<rect x="671.495" y="137.73" fill="#333334" width="5.875" height="5.625"/>
	<circle fill="#726658" cx="674.5" cy="140.635" r="2.042"/>
	<circle fill="#726658" cx="820.491" cy="140.687" r="2.042"/>
	<rect x="643.579" y="121.75" fill="#D31C2D" width="58.834" height="10.384"/>
	<polygon fill="#333334" points="616.281,103.609 506.594,103.609 506.594,102.359 614.26,102.359 	"/>
	<rect x="506.604" y="125.844" fill="#D31C2D" width="13.167" height="18.627"/>
	<rect x="616.302" y="125.469" fill="#D31C2D" width="11.094" height="19.063"/>
	<rect x="506.604" y="136.25" fill="#D31C2D" width="120.771" height="8.313"/>
	<rect x="556.75" y="125.75" fill="#D31C2D" width="22.5" height="17.5"/>
</g>
</svg>
