<?xml version="1.0" encoding="utf-8"?>
<!-- Generator: Adobe Illustrator 16.0.0, SVG Export Plug-In . SVG Version: 6.00 Build 0)  -->
<!DOCTYPE svg PUBLIC "-//W3C//DTD SVG 1.1//EN" "http://www.w3.org/Graphics/SVG/1.1/DTD/svg11.dtd">
<svg version="1.1" id="Layer_1" xmlns="http://www.w3.org/2000/svg" xmlns:xlink="http://www.w3.org/1999/xlink" x="0px" y="0px"
	 width="903px" height="190px" viewBox="0 0 903 190" enable-background="new 0 0 903 190" xml:space="preserve">
<g id="basis">
	<rect x="738.138" y="85.686" fill="#238937" width="100.667" height="48.507"/>
	<g>
		
			<line fill="none" stroke="#A17225" stroke-width="0.3" stroke-miterlimit="10" x1="738.666" y1="88.667" x2="838.834" y2="88.667"/>
		<line fill="none" stroke="#A17225" stroke-width="0.3" stroke-miterlimit="10" x1="738.5" y1="92.667" x2="839.084" y2="92.667"/>
		<line fill="none" stroke="#A17225" stroke-width="0.3" stroke-miterlimit="10" x1="738.334" y1="96.584" x2="838.5" y2="96.584"/>
		
			<line fill="none" stroke="#A17225" stroke-width="0.3" stroke-miterlimit="10" x1="738.166" y1="100.584" x2="838.916" y2="100.584"/>
		<line fill="none" stroke="#A17225" stroke-width="0.3" stroke-miterlimit="10" x1="738" y1="104.5" x2="838.75" y2="104.5"/>
		<line fill="none" stroke="#A17225" stroke-width="0.3" stroke-miterlimit="10" x1="737.834" y1="108.5" x2="839.334" y2="108.5"/>
		
			<line fill="none" stroke="#A17225" stroke-width="0.3" stroke-miterlimit="10" x1="738.459" y1="112.209" x2="838.625" y2="112.209"/>
		
			<line fill="none" stroke="#A17225" stroke-width="0.3" stroke-miterlimit="10" x1="738.291" y1="116.209" x2="839.041" y2="116.209"/>
		
			<line fill="none" stroke="#A17225" stroke-width="0.3" stroke-miterlimit="10" x1="738.125" y1="120.125" x2="838.875" y2="120.125"/>
	</g>
	<rect x="838.805" y="83.729" fill="#333334" width="25.492" height="59.548"/>
	<path fill="#333334" d="M855.234,36.134h-10.692v48.624c0,0,2.412,1.318,5.444,1.318c3.031,0,5.248-1.318,5.248-1.318V36.134
		L855.234,36.134z"/>
	<path fill="#CF9234" d="M855.227,36.11c0-9.388,4.367-11.475,4.367-11.475s0.834-1.813,0.053-2.594s-18.469-1.031-19.438-0.063
		c-0.97,0.968-0.034,2.681-0.034,2.681s4.366,2.087,4.366,11.475L855.227,36.11z"/>
	
		<line fill="none" stroke="#A17225" stroke-width="1.1794" stroke-miterlimit="10" x1="805.684" y1="85.667" x2="805.684" y2="133.866"/>
	<polygon fill="#414042" points="676.377,120.555 674.669,120.563 672.26,78.442 673.967,78.434 	"/>
	
		<line fill="none" stroke="#A17225" stroke-width="1.1794" stroke-miterlimit="10" x1="774.192" y1="85.667" x2="774.192" y2="133.866"/>
	<rect x="849.106" y="115.167" fill="#BE1E2D" width="7.433" height="12.228"/>
	<rect x="870.488" y="121.762" fill="#EE2E30" width="3.521" height="17.771"/>
	<rect x="873.901" y="131.93" fill="#333334" width="4.829" height="7.19"/>
	<rect x="786.906" y="110.51" fill="#BE1E2D" width="6.063" height="18.567"/>
	<rect x="674.766" y="83.521" fill="#333334" width="63.372" height="53.985"/>
	<rect x="779.625" y="96.432" fill="#333334" width="21.723" height="6.184"/>
	<g>
		<path fill="#C3922E" d="M781.256,97.912h0.438v3.029h1.452v0.367h-1.892L781.256,97.912L781.256,97.912z"/>
		<path fill="#C3922E" d="M785.392,99.716h-1.32v1.226h1.473v0.367h-1.911v-3.396h1.835v0.368h-1.396v1.072h1.32V99.716z"/>
		<path fill="#C3922E" d="M787.178,97.958c0.19-0.04,0.493-0.071,0.801-0.071c0.438,0,0.722,0.075,0.932,0.247
			c0.179,0.132,0.283,0.333,0.283,0.601c0,0.328-0.217,0.615-0.574,0.746v0.009c0.322,0.081,0.701,0.348,0.701,0.853
			c0,0.292-0.116,0.516-0.288,0.682c-0.236,0.217-0.62,0.316-1.174,0.316c-0.303,0-0.535-0.021-0.681-0.04V97.958z M787.615,99.35
			h0.398c0.464,0,0.734-0.242,0.734-0.569c0-0.398-0.303-0.556-0.745-0.556c-0.201,0-0.317,0.016-0.389,0.03L787.615,99.35
			L787.615,99.35z M787.615,100.977c0.086,0.016,0.212,0.02,0.367,0.02c0.454,0,0.873-0.165,0.873-0.659
			c0-0.464-0.398-0.655-0.878-0.655h-0.362V100.977z"/>
		<path fill="#C3922E" d="M791.663,99.716h-1.319v1.226h1.472v0.367h-1.91v-3.396h1.834v0.368h-1.396v1.072h1.319V99.716z"/>
		<path fill="#C3922E" d="M792.383,97.912h0.438v3.029h1.452v0.367h-1.89V97.912z"/>
		<path fill="#C3922E" d="M797.148,101.158c-0.196,0.068-0.585,0.186-1.044,0.186c-0.514,0-0.938-0.131-1.27-0.449
			c-0.293-0.28-0.475-0.733-0.475-1.265c0.006-1.012,0.701-1.753,1.839-1.753c0.395,0,0.701,0.085,0.848,0.156l-0.105,0.357
			c-0.181-0.082-0.408-0.146-0.751-0.146c-0.826,0-1.365,0.514-1.365,1.365c0,0.86,0.52,1.371,1.312,1.371
			c0.286,0,0.482-0.041,0.584-0.092v-1.014h-0.69v-0.354h1.119L797.148,101.158L797.148,101.158z"/>
		<path fill="#C3922E" d="M799.573,99.716h-1.319v1.226h1.471v0.367h-1.91v-3.396h1.835v0.368h-1.396v1.072h1.319V99.716
			L799.573,99.716z"/>
	</g>
	<path fill="#CF9234" d="M827.069,86.989c0,0-2.021,0.88-5.836,0.88c-3.813,0-5.64-0.88-5.64-0.88V70.298h11.476V86.989z"/>
	<path fill="#CF9234" d="M827.055,71.211h-11.43c0,0-0.809-6.846,5.706-6.846C827.848,64.365,827.055,71.211,827.055,71.211z"/>
	<path fill="#414042" d="M715.709,83.86c0,0-2.348,1.434-8.605,1.434c-6.26,0-8.998-1.434-8.998-1.434v-8.606h17.604L715.709,83.86
		L715.709,83.86z"/>
	<rect x="695.563" y="72.432" fill="#333334" width="22.885" height="2.886"/>
	<rect x="705.818" y="67.006" fill="#CF9234" width="2.511" height="5.454"/>
	<path fill="#CF9234" d="M709.48,67.158h-4.807c0,0,0.344-7.416,2.229-7.241C708.794,60.095,709.48,67.158,709.48,67.158z"/>
	<rect x="705.688" y="67.071" fill="#C08329" width="2.799" height="1.418"/>
	<rect x="786.776" y="83.224" fill="#C08329" width="6.748" height="2.455"/>
	<rect x="753.907" y="83.243" fill="#C08329" width="6.748" height="2.47"/>
	<polyline fill="#C08329" points="791.823,73.635 791.803,59.604 788.74,59.604 788.803,73.666 	"/>
	<polygon fill="#C08329" points="758.74,59.249 755.678,59.249 755.74,73.312 758.761,73.28 	"/>
	<rect x="707.916" y="114.666" fill="#BE1E2D" width="7.334" height="14.667"/>
	<polygon fill="#CF9234" points="758.734,59.25 755.688,59.25 754.041,55.166 760.166,55.166 	"/>
	<polygon fill="#CF9234" points="791.797,59.656 788.767,59.661 787.203,55.661 793.328,55.661 	"/>
	<rect x="788.256" y="73.244" fill="#CF9234" width="4.25" height="10"/>
	<rect x="641.389" y="134.393" fill="#726658" width="35.111" height="2.107"/>
	<rect x="652.772" y="132.152" fill="#726658" width="186.207" height="5.67"/>
	<rect x="640.844" y="133.333" fill="#333334" width="1.502" height="4.209"/>
	<rect x="755.188" y="73.25" fill="#CF9234" width="4.25" height="10"/>
	<rect x="639.188" y="133.313" fill="#333334" width="1.627" height="4.22"/>
	<rect x="627.313" y="134.344" fill="#726658" width="11.875" height="2.094"/>
	<rect x="514.625" y="115" fill="#414042" width="108.5" height="17.25"/>
	<g>
		<polygon fill="#414042" points="562.13,87.712 564.797,92.045 567.464,89.712 564.797,86.712 		"/>
		<polygon fill="#414042" points="566.819,90.318 571.332,92.667 572.423,89.295 568.594,88.091 		"/>
		<polygon fill="#414042" points="564.875,93.062 569.959,92.846 569.221,89.379 565.302,90.247 		"/>
		<polygon fill="#414042" points="568.653,92.485 573.166,94.833 574.256,91.461 570.427,90.257 		"/>
		<polygon fill="#414042" points="578.09,89.769 573.002,89.851 573.649,93.335 577.59,92.572 		"/>
		<polygon fill="#414042" points="576.819,92.318 581.332,94.667 582.423,91.294 578.594,90.09 		"/>
		<polygon fill="#414042" points="579.152,90.651 583.666,93 584.756,89.628 580.927,88.424 		"/>
		<polygon fill="#414042" points="560.152,91.151 564.666,93.5 565.756,90.128 561.927,88.924 		"/>
		<polygon fill="#414042" points="581.153,94.235 585.666,96.584 586.756,93.212 582.927,92.008 		"/>
		<polygon fill="#414042" points="585.83,87.843 582.995,92.069 586.226,93.526 587.848,89.854 		"/>
		<polygon fill="#414042" points="584.598,93.841 589.684,94.023 589.219,90.51 585.243,91.067 		"/>
		<polygon fill="#414042" points="573.334,87.67 574.722,92.565 577.923,91.045 579.852,89.052 		"/>
		<polygon fill="#414042" points="573.569,93.818 578.082,96.167 579.173,92.795 575.344,91.591 		"/>
		<polygon fill="#414042" points="585.403,95.818 592.028,96.902 595.229,92.267 589.288,92.327 		"/>
		<polygon fill="#414042" points="538.019,86.552 540.686,90.886 543.353,88.552 540.686,85.552 		"/>
		<polygon fill="#414042" points="542.707,89.159 547.222,91.507 548.312,88.135 544.482,86.931 		"/>
		<polygon fill="#414042" points="540.764,91.902 545.848,91.686 545.11,88.22 541.19,89.087 		"/>
		<polygon fill="#414042" points="544.541,91.325 549.056,93.674 550.145,90.302 546.316,89.098 		"/>
		<polygon fill="#414042" points="553.979,88.609 548.891,88.691 549.537,92.175 553.479,91.413 		"/>
		<polygon fill="#414042" points="552.707,91.158 557.222,93.507 558.312,90.135 554.482,88.931 		"/>
		<polygon fill="#414042" points="555.041,89.492 559.555,91.84 560.645,88.468 556.815,87.264 		"/>
		<polygon fill="#414042" points="536.041,89.992 540.555,92.34 541.645,88.968 537.815,87.764 		"/>
		<polygon fill="#414042" points="557.041,93.076 561.556,95.424 562.645,92.052 558.816,90.848 		"/>
		<polygon fill="#414042" points="561.719,86.684 558.884,90.909 562.115,92.366 563.736,88.694 		"/>
		<polygon fill="#414042" points="549.223,86.51 550.611,91.406 553.812,89.885 555.74,87.893 		"/>
		<polygon fill="#414042" points="549.457,92.659 553.972,95.007 555.062,91.635 551.232,90.431 		"/>
		<polygon fill="#414042" points="506.297,86.045 508.963,90.379 511.63,88.045 508.963,85.045 		"/>
		<polygon fill="#414042" points="510.986,88.652 515.5,91 516.589,87.628 512.76,86.424 		"/>
		<polygon fill="#414042" points="509.041,91.396 514.125,91.179 513.388,87.713 509.468,88.58 		"/>
		<polygon fill="#414042" points="512.819,90.818 517.332,93.167 518.423,89.795 514.594,88.591 		"/>
		<polygon fill="#414042" points="522.257,88.102 517.169,88.184 517.815,91.668 521.756,90.906 		"/>
		<polygon fill="#414042" points="520.986,90.651 525.5,93 526.589,89.628 522.76,88.424 		"/>
		<polygon fill="#414042" points="523.319,88.985 527.832,91.333 528.922,87.961 525.093,86.757 		"/>
		<polygon fill="#414042" points="504.319,89.485 508.832,91.833 509.922,88.461 506.093,87.257 		"/>
		<polygon fill="#414042" points="525.319,92.569 529.832,94.917 530.923,91.545 527.094,90.341 		"/>
		<polygon fill="#414042" points="529.996,86.177 527.161,90.402 530.393,91.859 532.014,88.188 		"/>
		<polygon fill="#414042" points="528.765,92.175 533.85,92.357 533.385,88.844 529.409,89.401 		"/>
		<polygon fill="#414042" points="517.5,86.003 518.889,90.899 522.089,89.378 524.019,87.386 		"/>
		<polygon fill="#414042" points="517.736,92.152 522.25,94.5 523.339,91.128 519.51,89.924 		"/>
		<polygon fill="#414042" points="531.402,91.152 538.028,92.236 541.229,87.6 535.287,87.66 		"/>
	</g>
	<line fill="none" stroke="#414042" stroke-miterlimit="10" x1="674.791" y1="102.666" x2="738.041" y2="102.666"/>
	
		<rect x="671.557" y="77.43" transform="matrix(-1 0.0075 -0.0075 -1 1346.6069 152.7052)" fill="#808285" width="2.917" height="2.917"/>
	<polyline fill="#726658" points="506.414,136.786 495.677,136.786 495.677,134.453 506.99,134.453 506.99,136.786 	"/>
	<rect x="494.576" y="138.066" fill="none" width="1.408" height="3.875"/>
	<rect x="844.541" y="67.678" fill="#C08329" width="10.692" height="1.322"/>
	<path fill="#C08329" d="M855.234,84.813c0,0-2.188,1.344-5.266,1.344s-5.427-1.344-5.427-1.344v-1.51h10.691L855.234,84.813
		L855.234,84.813z"/>
	<rect x="844.541" y="50.928" fill="#C08329" width="10.692" height="1.322"/>
	<rect x="815.625" y="70.188" fill="#C08329" width="11.438" height="14.125"/>
	<rect x="815.625" y="71.542" fill="#CF9234" width="11.416" height="11.396"/>
	<path fill="#C08329" d="M857.25,27l-14.75-0.042c2.5,4.792,2,9.229,2,9.229h10.813C855.313,36.188,854.832,31.583,857.25,27z"/>
	<circle fill="#58595B" cx="708.25" cy="97.375" r="1.938"/>
	<line fill="none" stroke="#414042" stroke-miterlimit="10" x1="674.791" y1="91.833" x2="738.041" y2="91.833"/>
	<rect x="494.177" y="133.667" fill="#333334" width="1.502" height="4.209"/>
</g>
</svg>
