<?xml version="1.0" encoding="utf-8"?>
<!-- Generator: Adobe Illustrator 16.0.0, SVG Export Plug-In . SVG Version: 6.00 Build 0)  -->
<!DOCTYPE svg PUBLIC "-//W3C//DTD SVG 1.1//EN" "http://www.w3.org/Graphics/SVG/1.1/DTD/svg11.dtd">
<svg version="1.1" id="Layer_1" xmlns="http://www.w3.org/2000/svg" xmlns:xlink="http://www.w3.org/1999/xlink" x="0px" y="0px"
	 width="57.2px" height="57.2px" viewBox="0 0 57.2 57.2" enable-background="new 0 0 57.2 57.2" xml:space="preserve">
<g>
	<g>
		<rect x="27.875" y="3.6" fill="#9E7E64" width="1.449" height="50"/>
		<polygon fill="#9E7E64" points="19.278,5.35 20.639,4.859 37.934,51.839 36.574,52.33 		"/>
		<polygon fill="#9E7E64" points="11.825,9.887 12.936,8.966 45.39,47.281 44.28,48.203 		"/>
		<polygon fill="#9E7E64" points="6.37,16.703 7.094,15.46 50.842,40.451 50.119,41.693 		"/>
		<polygon fill="#9E7E64" points="3.608,24.925 3.86,23.513 53.6,32.218 53.347,33.63 		"/>
		<polygon fill="#9E7E64" points="3.853,33.625 3.6,32.212 53.34,23.502 53.593,24.915 		"/>
		<polygon fill="#9E7E64" points="7.091,41.699 6.365,40.457 50.088,15.422 50.815,16.664 		"/>
		<polygon fill="#9E7E64" points="12.922,48.187 11.81,47.267 44.234,8.926 45.345,9.847 		"/>
		<polygon fill="#9E7E64" points="20.639,52.304 19.277,51.815 36.501,4.811 37.864,5.3 		"/>
	</g>
	<path fill="#747678" d="M56.2,28.099c0,19.535-14.5,28.051-28.1,28.051C12.8,56.25,1,45.731,1,29.001C1,11.369,13.4,0.95,29,0.95
		C45.2,0.95,56.2,11.97,56.2,28.099z M4,28.701c0,13.925,10.2,24.443,24.5,24.443c14,0,24.5-10.319,24.5-24.644
		C53,17.78,46.2,4.156,28.9,4.156C11.5,4.056,4,16.679,4,28.701z"/>
	<circle fill="#5D5E61" cx="28.6" cy="28.6" r="5.2"/>
</g>
</svg>
